<svg width="291" height="225" viewBox="0 0 291 225" fill="none" xmlns="http://www.w3.org/2000/svg">
<g clip-path="url(#clip0_93_206)">
<path d="M278.942 196.868C277.786 187.568 272.028 178.405 263.165 175.379C266.66 184.951 266.66 195.451 263.163 205.023C261.802 208.709 259.903 212.667 261.184 216.383C261.981 218.694 263.931 220.463 266.11 221.569C268.29 222.675 270.709 223.202 273.097 223.719L273.567 224.108C277.359 215.539 280.098 206.167 278.942 196.868Z" fill="#F0F0F0"/>
<path d="M263.078 175.555C268.238 181.342 271.446 188.609 272.245 196.325C272.446 197.983 272.385 199.662 272.064 201.301C271.7 202.887 270.918 204.347 269.799 205.528C268.778 206.651 267.604 207.681 266.873 209.033C266.509 209.73 266.297 210.496 266.25 211.281C266.203 212.067 266.323 212.853 266.601 213.589C267.246 215.44 268.517 216.949 269.811 218.382C271.248 219.972 272.766 221.601 273.377 223.71C273.451 223.965 273.843 223.835 273.769 223.58C272.706 219.912 269.148 217.828 267.451 214.524C266.659 212.982 266.327 211.192 267.069 209.565C267.718 208.141 268.928 207.078 269.972 205.95C271.08 204.814 271.893 203.423 272.341 201.899C272.744 200.282 272.87 198.608 272.712 196.948C272.416 193.207 271.534 189.535 270.099 186.068C268.483 182.102 266.2 178.441 263.351 175.245C263.174 175.047 262.902 175.358 263.078 175.555Z" fill="white"/>
<path d="M272.134 193.825C273.409 193.515 274.533 192.762 275.304 191.699C276.076 190.637 276.445 189.335 276.345 188.025C276.324 187.76 275.912 187.78 275.933 188.046C276.028 189.265 275.684 190.478 274.964 191.466C274.243 192.454 273.194 193.151 272.005 193.433C271.746 193.494 271.877 193.886 272.134 193.825Z" fill="white"/>
<path d="M270.392 205.027C268.088 203.651 266.388 201.457 265.63 198.881C265.555 198.626 265.163 198.756 265.238 199.011C266.032 201.689 267.806 203.969 270.206 205.396C270.435 205.532 270.619 205.163 270.392 205.027Z" fill="white"/>
<path d="M268.1 182.493C267.631 182.716 267.115 182.819 266.597 182.792C266.079 182.766 265.576 182.611 265.132 182.342C264.905 182.203 264.721 182.573 264.946 182.711C265.438 183.006 265.994 183.176 266.566 183.207C267.138 183.237 267.709 183.127 268.229 182.885C268.28 182.866 268.322 182.829 268.346 182.781C268.371 182.732 268.376 182.676 268.36 182.624C268.343 182.572 268.306 182.53 268.257 182.505C268.208 182.48 268.152 182.476 268.1 182.493Z" fill="white"/>
<path d="M236.153 191.989C236.292 192.08 236.431 192.17 236.571 192.265C238.437 193.493 240.201 194.871 241.844 196.385C241.973 196.5 242.102 196.618 242.227 196.737C246.148 200.427 249.35 204.813 251.67 209.673C252.592 211.607 253.365 213.609 253.983 215.661C254.836 218.495 255.536 221.636 257.226 223.954C257.399 224.198 257.588 224.431 257.79 224.651H273.057C273.091 224.634 273.126 224.62 273.161 224.603L273.77 224.631C273.746 224.522 273.718 224.411 273.694 224.303C273.68 224.24 273.662 224.177 273.649 224.115C273.638 224.073 273.628 224.031 273.621 223.993C273.617 223.979 273.614 223.965 273.61 223.954C273.603 223.916 273.593 223.881 273.586 223.846C273.433 223.222 273.275 222.598 273.112 221.974C273.112 221.971 273.112 221.971 273.109 221.967C271.858 217.216 270.2 212.528 267.884 208.24C267.814 208.111 267.745 207.979 267.668 207.85C266.613 205.923 265.403 204.086 264.049 202.356C263.305 201.411 262.513 200.505 261.677 199.641C259.513 197.411 257.012 195.536 254.265 194.084C248.79 191.191 242.45 190.082 236.599 191.85C236.449 191.895 236.302 191.94 236.153 191.989Z" fill="#F0F0F0"/>
<path d="M236.187 192.183C243.79 193.694 250.723 197.564 256.002 203.243C257.16 204.445 258.122 205.823 258.851 207.325C259.515 208.811 259.769 210.448 259.586 212.065C259.446 213.577 259.128 215.107 259.358 216.626C259.487 217.402 259.779 218.142 260.214 218.797C260.649 219.452 261.217 220.008 261.882 220.428C263.51 221.518 265.433 221.957 267.328 222.32C269.433 222.724 271.625 223.111 273.381 224.426C273.594 224.585 273.829 224.246 273.616 224.087C270.561 221.798 266.466 222.278 263.123 220.662C261.563 219.909 260.221 218.68 259.835 216.933C259.497 215.405 259.823 213.827 259.978 212.298C260.179 210.723 259.992 209.122 259.432 207.636C258.781 206.102 257.875 204.69 256.75 203.46C254.263 200.651 251.35 198.25 248.118 196.347C244.442 194.154 240.417 192.606 236.219 191.771C235.959 191.72 235.929 192.132 236.187 192.183Z" fill="white"/>
<path d="M254.409 201.314C255.241 200.298 255.685 199.02 255.662 197.707C255.639 196.394 255.15 195.131 254.283 194.146C254.106 193.947 253.789 194.211 253.966 194.411C254.775 195.327 255.23 196.503 255.249 197.726C255.269 198.948 254.85 200.138 254.07 201.079C253.901 201.284 254.241 201.518 254.409 201.314Z" fill="white"/>
<path d="M259.758 211.308C257.091 211.597 254.413 210.869 252.258 209.27C252.045 209.112 251.81 209.451 252.023 209.61C254.268 211.27 257.057 212.021 259.831 211.715C260.096 211.685 260.021 211.279 259.758 211.308Z" fill="white"/>
<path d="M244.371 194.697C244.131 195.157 243.781 195.55 243.351 195.841C242.922 196.132 242.427 196.312 241.911 196.364C241.646 196.391 241.722 196.797 241.985 196.771C242.555 196.71 243.101 196.511 243.576 196.191C244.051 195.87 244.441 195.438 244.711 194.932C244.74 194.886 244.751 194.831 244.741 194.778C244.732 194.724 244.702 194.677 244.658 194.645C244.613 194.614 244.558 194.602 244.504 194.611C244.45 194.621 244.403 194.652 244.371 194.697Z" fill="white"/>
<path d="M211.571 33.4572L29.3755 0.0503729C29.0045 -0.0209919 28.623 -0.0164854 28.2539 0.0636197C27.9191 0.137003 27.6048 0.283927 27.3337 0.493769C27.0686 0.700634 26.8554 0.96642 26.7109 1.27007C26.5571 1.59802 26.4789 1.95635 26.482 2.3186V165.673C26.4787 166.035 26.5566 166.394 26.7102 166.722C26.8545 167.025 27.0675 167.291 27.3323 167.498C27.6032 167.708 27.9174 167.856 28.2521 167.929C28.6212 168.01 29.0028 168.014 29.3737 167.943L211.571 134.536C211.722 134.505 211.862 134.434 211.976 134.33C212.11 134.211 212.221 134.069 212.306 133.912C212.405 133.732 212.479 133.54 212.528 133.341C212.582 133.125 212.61 132.902 212.61 132.679V35.3197C212.61 35.0959 212.583 34.8728 212.529 34.6556C212.48 34.4564 212.405 34.2645 212.307 34.0847C212.222 33.9272 212.11 33.7856 211.977 33.6664C211.863 33.5627 211.723 33.4916 211.572 33.4603L211.571 33.4572Z" fill="#E4E4E4"/>
<path d="M214.358 33.4572L32.1621 0.0503729C31.7912 -0.0209919 31.4096 -0.0164854 31.0405 0.0636197C30.7057 0.137003 30.3914 0.283927 30.1203 0.493769C29.8553 0.700634 29.642 0.96642 29.4975 1.27007C29.3437 1.59802 29.2655 1.95635 29.2687 2.3186V165.673C29.2653 166.035 29.3432 166.394 29.4968 166.722C29.6411 167.025 29.8541 167.291 30.1189 167.498C30.3898 167.708 30.704 167.856 31.0388 167.929C31.4079 168.01 31.7894 168.014 32.1603 167.943L214.358 134.536C214.509 134.505 214.649 134.434 214.763 134.33C214.896 134.211 215.008 134.069 215.093 133.912C215.192 133.732 215.266 133.54 215.315 133.341C215.369 133.125 215.396 132.902 215.396 132.679V35.3197C215.396 35.0959 215.369 34.8728 215.315 34.6556C215.266 34.4564 215.192 34.2645 215.093 34.0847C215.008 33.9272 214.897 33.7856 214.763 33.6664C214.649 33.5627 214.509 33.4916 214.358 33.4603L214.358 33.4572Z" fill="white"/>
<path d="M214.358 33.4572L32.1621 0.0503729C31.7912 -0.0209919 31.4096 -0.0164854 31.0405 0.0636197C30.7057 0.137003 30.3914 0.283927 30.1203 0.493769C29.8553 0.700634 29.642 0.96642 29.4975 1.27007C29.3437 1.59802 29.2655 1.95635 29.2687 2.3186V165.673C29.2653 166.035 29.3432 166.394 29.4968 166.722C29.6411 167.025 29.8541 167.291 30.1189 167.498C30.3898 167.708 30.704 167.856 31.0388 167.929C31.4079 168.01 31.7894 168.014 32.1603 167.943L214.358 134.536C214.509 134.505 214.649 134.434 214.763 134.33C214.896 134.211 215.008 134.069 215.093 133.912C215.192 133.732 215.266 133.54 215.315 133.341C215.369 133.125 215.396 132.902 215.396 132.679V35.3197C215.396 35.0959 215.369 34.8728 215.315 34.6556C215.266 34.4564 215.192 34.2645 215.093 34.0847C215.008 33.9272 214.897 33.7856 214.763 33.6664C214.649 33.5627 214.509 33.4916 214.358 33.4603L214.358 33.4572ZM215.051 132.738C215.051 132.887 215.033 133.036 214.997 133.181C214.964 133.314 214.915 133.442 214.849 133.562C214.792 133.667 214.718 133.762 214.629 133.841C214.552 133.91 214.459 133.957 214.359 133.978L32.1638 167.014C31.9166 167.061 31.6625 167.058 31.4167 167.004C31.194 166.954 30.9849 166.856 30.8047 166.716C30.6286 166.578 30.4869 166.401 30.3909 166.199C30.2889 165.981 30.237 165.742 30.2391 165.502V2.4922C30.2369 2.25141 30.2887 2.01319 30.3906 1.79503C30.4864 1.59262 30.6279 1.41528 30.804 1.27704C30.9841 1.13693 31.193 1.03859 31.4156 0.989108C31.6614 0.93506 31.9156 0.931382 32.1628 0.9783L214.359 34.0156C214.459 34.0362 214.553 34.0834 214.629 34.1523C214.718 34.2318 214.792 34.3261 214.849 34.4312C214.915 34.551 214.965 34.679 214.997 34.8118C215.033 34.9568 215.052 35.1057 215.052 35.2552V132.738L215.051 132.738Z" fill="#CACACA"/>
<path d="M0.000235936 50.9868C-0.00852881 49.8724 0.227006 48.7696 0.690242 47.7561C1.12318 46.8199 1.76299 45.9944 2.56137 45.3418C3.36503 44.6895 4.30327 44.2236 5.3085 43.9778C6.39606 43.7153 7.5262 43.6812 8.62757 43.8778C9.78275 44.0791 10.8912 44.4908 11.8979 45.0926C12.8924 45.6848 13.7826 46.4369 14.5328 47.3186C15.2768 48.1879 15.8712 49.1748 16.2918 50.2391C16.711 51.2952 16.9286 52.4205 16.9334 53.5569C16.9412 54.6315 16.7226 55.6958 16.2918 56.6802C15.8872 57.595 15.2868 58.4097 14.5328 59.0666C13.7687 59.7283 12.8694 60.2151 11.8979 60.493C10.835 60.7933 9.72128 60.8691 8.62757 60.7154C7.46252 60.5548 6.33756 60.1784 5.31025 59.6055C4.2781 59.0324 3.34975 58.2894 2.56416 57.4077C1.77523 56.5278 1.1423 55.5195 0.692677 54.4263C0.241834 53.3354 0.00668119 52.1673 0.000235936 50.9868Z" fill="#E4E4E4"/>
<path d="M0.000235936 84.7994C-0.00852881 83.6849 0.227006 82.5821 0.690242 81.5687C1.12318 80.6325 1.76299 79.8069 2.56137 79.1544C3.36503 78.502 4.30327 78.0362 5.3085 77.7904C6.39606 77.5278 7.5262 77.4938 8.62757 77.6903C9.78275 77.8916 10.8912 78.3034 11.8979 78.9052C12.8924 79.4974 13.7826 80.2494 14.5328 81.1312C15.2768 82.0004 15.8712 82.9874 16.2918 84.0516C16.711 85.1077 16.9286 86.2331 16.9334 87.3695C16.9412 88.4441 16.7226 89.5084 16.2918 90.4928C15.8872 91.4076 15.2868 92.2222 14.5328 92.8792C13.7687 93.5408 12.8694 94.0276 11.8979 94.3056C10.835 94.6059 9.72128 94.6816 8.62757 94.528C7.46252 94.3674 6.33756 93.991 5.31025 93.4181C4.2781 92.8449 3.34975 92.1019 2.56416 91.2203C1.77523 90.3404 1.1423 89.332 0.692677 88.2388C0.241834 87.1479 0.00668119 85.9799 0.000235936 84.7994Z" fill="#E4E4E4"/>
<path d="M0.000235936 118.612C-0.00852881 117.498 0.227006 116.395 0.690242 115.381C1.12318 114.445 1.76299 113.62 2.56137 112.967C3.36503 112.315 4.30327 111.849 5.3085 111.603C6.39606 111.34 7.5262 111.306 8.62757 111.503C9.78275 111.704 10.8912 112.116 11.8979 112.718C12.8924 113.31 13.7826 114.062 14.5328 114.944C15.2768 115.813 15.8712 116.8 16.2918 117.864C16.711 118.92 16.9286 120.046 16.9334 121.182C16.9412 122.257 16.7226 123.321 16.2918 124.305C15.8872 125.22 15.2868 126.035 14.5328 126.692C13.7687 127.353 12.8694 127.84 11.8979 128.118C10.835 128.419 9.72128 128.494 8.62757 128.341C7.46252 128.18 6.33756 127.804 5.31025 127.231C4.2781 126.658 3.34975 125.915 2.56416 125.033C1.77523 124.153 1.1423 123.145 0.692677 122.051C0.241834 120.961 0.00668119 119.792 0.000235936 118.612Z" fill="#E4E4E4"/>
<path d="M2.09008 50.9868C2.08131 49.8724 2.31685 48.7696 2.78009 47.7561C3.21302 46.8199 3.85283 45.9944 4.65121 45.3418C5.45487 44.6895 6.39312 44.2236 7.39835 43.9778C8.4859 43.7153 9.61604 43.6812 10.7174 43.8778C11.8726 44.0791 12.9811 44.4908 13.9877 45.0926C14.9822 45.6848 15.8724 46.4369 16.6227 47.3186C17.3666 48.1879 17.9611 49.1748 18.3817 50.2391C18.8008 51.2952 19.0185 52.4205 19.0233 53.5569C19.0311 54.6315 18.8125 55.6958 18.3817 56.6802C17.9771 57.595 17.3766 58.4097 16.6227 59.0666C15.8585 59.7283 14.9593 60.2151 13.9877 60.493C12.9248 60.7933 11.8111 60.8691 10.7174 60.7154C9.55237 60.5548 8.42741 60.1784 7.40009 59.6055C6.36794 59.0324 5.4396 58.2894 4.654 57.4077C3.86508 56.5278 3.23215 55.5195 2.78252 54.4263C2.33168 53.3354 2.09652 52.1673 2.09008 50.9868Z" fill="#F0B000"/>
<path d="M2.08993 84.569C2.0846 83.4381 2.31981 82.3189 2.77994 81.286C3.21688 80.3129 3.85454 79.4434 4.65107 78.7344C5.44778 78.026 6.38343 77.4917 7.3982 77.1658C8.46929 76.8246 9.59895 76.707 10.7173 76.8203C11.8595 76.9323 12.9697 77.2626 13.9876 77.7932C14.9788 78.3093 15.8709 78.997 16.6225 79.8244C17.3691 80.6425 17.9646 81.5867 18.3815 82.6131C18.8038 83.653 19.0215 84.7648 19.0228 85.8873C19.0276 86.9774 18.8092 88.057 18.3812 89.0594C17.9707 90.0134 17.369 90.8728 16.6132 91.5845C15.8574 92.2963 14.9636 92.8451 13.9872 93.1971C12.9402 93.5736 11.8272 93.7315 10.7169 93.6611C9.56569 93.5903 8.43912 93.2967 7.3996 92.7966C5.32428 91.798 3.68315 90.0775 2.78272 87.9565C2.32892 86.8847 2.09339 85.733 2.08993 84.569Z" fill="#F0B000"/>
<path d="M2.09034 118.151C2.08891 117.026 2.31509 115.912 2.75525 114.877C3.19541 113.842 3.84044 112.906 4.65147 112.127C5.64879 111.172 6.8636 110.473 8.19095 110.093C9.5183 109.712 10.9183 109.661 12.2699 109.943C13.6215 110.225 14.8842 110.833 15.9488 111.713C17.0134 112.593 17.8479 113.719 18.3802 114.994C18.9034 116.263 19.1081 117.64 18.9764 119.007C18.8447 120.373 18.3806 121.686 17.6246 122.831C16.8686 123.977 15.8438 124.919 14.6398 125.577C13.4358 126.234 12.0892 126.587 10.7177 126.603C9.03863 126.627 7.38974 126.155 5.97808 125.245C4.56642 124.335 3.45491 123.028 2.78313 121.487C2.32621 120.435 2.09041 119.299 2.09034 118.151Z" fill="#F0B000"/>
<path d="M7.35263 50.9484L9.88207 51.3375V48.8416C9.88086 48.7336 9.90295 48.6266 9.94685 48.5279C9.98791 48.4366 10.049 48.3559 10.1255 48.2915C10.2029 48.227 10.2935 48.1805 10.391 48.1552C10.4971 48.1281 10.6078 48.1233 10.7159 48.1413C10.8305 48.1598 10.9406 48.1993 11.0409 48.2577C11.1409 48.3158 11.2305 48.39 11.3063 48.4773C11.3819 48.5639 11.4426 48.6625 11.4857 48.7691C11.5287 48.8748 11.5513 48.9878 11.5522 49.102V51.5944L14.0336 51.9754C14.1463 51.9932 14.2547 52.0318 14.3533 52.0893C14.551 52.2042 14.7048 52.3819 14.7901 52.5941C14.8322 52.6991 14.8541 52.8111 14.8546 52.9242C14.8554 53.0311 14.8334 53.137 14.7901 53.2348C14.7501 53.325 14.6906 53.4052 14.616 53.4697C14.5402 53.5342 14.4511 53.5811 14.3551 53.6071C14.2508 53.6349 14.1419 53.6406 14.0353 53.6238L11.5505 53.2519V55.7387C11.5513 55.8467 11.529 55.9537 11.485 56.0524C11.4438 56.144 11.3829 56.2253 11.3067 56.2905C11.2296 56.3557 11.1393 56.4033 11.0419 56.4299C10.9362 56.4586 10.8257 56.465 10.7173 56.4487C10.6029 56.4321 10.4926 56.3942 10.392 56.3372C10.2919 56.2805 10.2021 56.2075 10.1262 56.1211C10.0505 56.0353 9.9898 55.9372 9.94685 55.831C9.90415 55.725 9.88216 55.6118 9.88207 55.4974V53.0016L7.35263 52.6216C7.23642 52.6038 7.12449 52.5647 7.02243 52.5062C6.92088 52.4484 6.82965 52.3741 6.75249 52.2863C6.67579 52.1999 6.6142 52.1011 6.57032 51.9942C6.52658 51.8872 6.50388 51.7727 6.50344 51.6571C6.5026 51.5481 6.52542 51.4402 6.57032 51.3409C6.61244 51.2488 6.67469 51.1673 6.75249 51.1025C6.83115 51.0368 6.92331 50.9892 7.02243 50.9631C7.13032 50.9355 7.24272 50.9305 7.35263 50.9484Z" fill="white"/>
<path d="M9.12793 87.4709L16.152 87.9805H16.1778L12.8838 81.9954C12.8633 81.9577 12.834 81.9257 12.7984 81.9019C12.781 81.8903 12.7621 81.8808 12.7424 81.8737C12.7225 81.8665 12.7018 81.862 12.6807 81.8601C12.6602 81.8583 12.6396 81.8592 12.6194 81.8629C12.5999 81.8665 12.5811 81.8729 12.5633 81.8817C12.5279 81.8993 12.4982 81.9268 12.478 81.9609L10.2366 85.6482L10.1286 85.8256L9.12793 87.4709Z" fill="white"/>
<path d="M5.11914 87.1798L11.3163 87.6295L10.1286 85.8252L10.0429 85.6948L8.48523 83.3283C8.45764 83.2916 8.42322 83.2606 8.38387 83.237C8.36474 83.2256 8.34457 83.216 8.32361 83.2084C8.30194 83.2007 8.27953 83.1952 8.25674 83.192C8.23471 83.1889 8.21241 83.1881 8.19021 83.1896C8.16862 83.191 8.14726 83.1948 8.12646 83.2007C8.10601 83.2067 8.08627 83.2149 8.0676 83.2251C8.04884 83.2354 8.03131 83.2478 8.01535 83.2621L8.01013 83.2684L8.00351 83.2746L7.99829 83.2813L7.99306 83.2879L5.11914 87.1798Z" fill="white"/>
<path d="M9.80595 81.0102C9.94883 81.0227 10.088 81.0625 10.2159 81.1274C10.3413 81.1912 10.4544 81.2767 10.5499 81.3801C10.6453 81.4829 10.7215 81.6018 10.7749 81.7315C10.8292 81.8626 10.8572 82.003 10.8575 82.1449C10.8581 82.2823 10.83 82.4184 10.7749 82.5444C10.7227 82.6635 10.646 82.7704 10.5499 82.8581C10.4534 82.9459 10.3396 83.0128 10.2159 83.0543C10.084 83.0984 9.94447 83.1149 9.80595 83.1028C9.66289 83.0908 9.52348 83.0514 9.39529 82.9867C9.26929 82.9232 9.1556 82.8377 9.05952 82.7343C8.96349 82.6315 8.88669 82.5123 8.83277 82.3823C8.77806 82.2506 8.74978 82.1094 8.74952 81.9668C8.74892 81.8288 8.77728 81.6922 8.83277 81.5659C8.88555 81.4466 8.9628 81.3397 9.05952 81.2522C9.15678 81.1648 9.27111 81.0985 9.39529 81.0577C9.5275 81.0139 9.66726 80.9978 9.80595 81.0102Z" fill="white"/>
<path d="M85.6025 104.869L155.153 38.8275L155.452 39.3504L86.0372 105.428L85.6025 104.869Z" fill="#E6E6E6"/>
<path d="M85.6133 30.0167L86.0494 29.4938L155.445 101.59L155.146 102.086L85.6133 30.0167Z" fill="#E6E6E6"/>
<path d="M154.45 37.8633L86.8424 28.568C86.5298 28.5233 86.2111 28.5505 85.9106 28.6474C85.6246 28.7418 85.3635 28.8996 85.1468 29.109C84.9227 29.3256 84.7464 29.5868 84.6295 29.8758C84.5016 30.1947 84.4369 30.5355 84.439 30.8791V103.712C84.438 104.06 84.5027 104.406 84.6295 104.73C84.7475 105.031 84.9231 105.307 85.1464 105.541C85.3619 105.767 85.622 105.945 85.9103 106.064C86.2054 106.185 86.5237 106.238 86.842 106.22L154.45 102.494C154.678 102.479 154.899 102.407 155.092 102.285C155.297 102.156 155.475 101.987 155.615 101.79C155.769 101.573 155.888 101.334 155.967 101.08C156.053 100.804 156.096 100.516 156.096 100.227V40.2636C156.096 39.971 156.052 39.68 155.967 39.4002C155.887 39.1375 155.769 38.8884 155.615 38.6612C155.474 38.4517 155.297 38.2692 155.092 38.1226C154.902 37.9865 154.681 37.8977 154.45 37.8633ZM86.8424 105.471C86.6151 105.483 86.3879 105.445 86.1774 105.358C85.9718 105.273 85.7862 105.145 85.6327 104.984C85.4733 104.816 85.3481 104.619 85.2642 104.403C85.1738 104.172 85.1277 103.925 85.1283 103.677V30.9693C85.127 30.7245 85.1731 30.4817 85.2642 30.2544C85.3473 30.0477 85.4728 29.8608 85.6327 29.7057C85.7872 29.5564 85.9734 29.4438 86.1774 29.3763C86.3918 29.3066 86.6192 29.2867 86.8424 29.3181L154.45 38.4876C154.615 38.5121 154.773 38.5757 154.909 38.673C155.056 38.7773 155.183 38.9072 155.283 39.0565C155.393 39.2188 155.478 39.3968 155.535 39.5846C155.596 39.7846 155.627 39.9927 155.628 40.2019V100.251C155.628 100.458 155.597 100.664 155.535 100.861C155.479 101.043 155.394 101.214 155.283 101.369C155.183 101.51 155.056 101.63 154.909 101.722C154.771 101.809 154.613 101.86 154.45 101.87L86.8424 105.471Z" fill="#E6E6E6"/>
<path d="M84.6028 113.912C84.4231 113.932 84.2517 113.998 84.1058 114.105C83.9447 114.223 83.8078 114.371 83.7024 114.541C83.5826 114.731 83.4919 114.937 83.4335 115.154C83.3689 115.39 83.3376 115.635 83.3405 115.88C83.342 116.114 83.3771 116.348 83.445 116.572C83.5041 116.77 83.5959 116.956 83.7167 117.123C83.822 117.27 83.9584 117.392 84.1162 117.48C84.2653 117.561 84.4342 117.599 84.6039 117.59L202.962 107.781C203.056 107.774 203.144 107.733 203.212 107.667C203.298 107.584 203.367 107.486 203.417 107.378C203.48 107.245 203.527 107.104 203.556 106.96C203.592 106.793 203.61 106.622 203.611 106.452C203.613 106.283 203.597 106.114 203.565 105.948C203.538 105.807 203.493 105.67 203.431 105.54C203.384 105.437 203.316 105.344 203.231 105.269C203.163 105.208 203.074 105.175 202.982 105.177H202.962L84.6028 113.912Z" fill="#E6E6E6"/>
<path d="M84.6028 125.074C84.4221 125.099 84.2509 125.17 84.1058 125.28C83.9449 125.403 83.8081 125.554 83.7024 125.726C83.5828 125.918 83.4922 126.127 83.4335 126.346C83.3688 126.584 83.3375 126.83 83.3405 127.076C83.3418 127.31 83.377 127.542 83.445 127.766C83.5038 127.962 83.5957 128.145 83.7167 128.31C83.8218 128.453 83.9582 128.572 84.1155 128.655C84.2656 128.733 84.4348 128.766 84.6032 128.752L202.962 115.685C203.056 115.674 203.145 115.631 203.212 115.563C203.298 115.478 203.367 115.378 203.417 115.268C203.48 115.133 203.527 114.991 203.556 114.844C203.592 114.677 203.61 114.506 203.611 114.335C203.613 114.166 203.597 113.997 203.565 113.832C203.538 113.692 203.493 113.556 203.431 113.428C203.384 113.327 203.315 113.236 203.23 113.163C203.161 113.104 203.072 113.073 202.981 113.078H202.961L84.6028 125.074Z" fill="#E6E6E6"/>
<path d="M84.6028 136.055C84.4212 136.085 84.2502 136.161 84.1058 136.275C83.9449 136.402 83.8082 136.556 83.7024 136.732C83.583 136.927 83.4925 137.138 83.4335 137.359C83.369 137.598 83.3377 137.844 83.3405 138.091C83.3417 138.324 83.3769 138.556 83.445 138.778C83.5035 138.971 83.5955 139.153 83.7167 139.314C83.8218 139.455 83.9584 139.57 84.1155 139.649C84.2667 139.723 84.436 139.752 84.6031 139.732L202.962 123.459C203.057 123.446 203.145 123.401 203.212 123.331C203.298 123.244 203.367 123.142 203.417 123.031C203.48 122.894 203.527 122.751 203.556 122.603C203.592 122.435 203.61 122.264 203.611 122.092C203.613 121.924 203.597 121.756 203.565 121.591C203.538 121.452 203.493 121.317 203.431 121.19C203.384 121.09 203.315 121.002 203.23 120.931C203.161 120.874 203.071 120.845 202.981 120.852H202.96L84.6028 136.055Z" fill="#E6E6E6"/>
<path d="M14.0941 114.614L7.33754 114.534C7.22488 114.53 7.1124 114.546 7.00525 114.581C6.90167 114.615 6.8047 114.666 6.71859 114.733C6.63278 114.8 6.55923 114.881 6.50124 114.972C6.44182 115.067 6.39993 115.171 6.37759 115.28C6.3553 115.411 6.36208 115.544 6.39744 115.672C6.4151 115.736 6.43962 115.797 6.47059 115.856C6.53372 115.975 6.62204 116.079 6.72939 116.16C6.89037 116.282 7.08643 116.349 7.28843 116.351L9.32048 116.369C9.4163 116.37 9.50986 116.398 9.58968 116.451C9.66949 116.505 9.7321 116.58 9.7698 116.668C9.79514 116.728 9.80818 116.792 9.80812 116.857V120.846C9.80309 121.066 9.87641 121.281 10.015 121.452C10.1537 121.624 10.3484 121.741 10.565 121.783C10.7613 121.816 10.9629 121.784 11.139 121.691C11.3152 121.598 11.4561 121.45 11.5403 121.27C11.5957 121.151 11.6244 121.021 11.6246 120.89V116.868C11.6246 116.805 11.637 116.743 11.661 116.685C11.6851 116.627 11.7203 116.574 11.7647 116.53C11.809 116.485 11.8617 116.45 11.9196 116.426C11.9776 116.402 12.0397 116.39 12.1024 116.39L12.107 116.39L14.0481 116.405C14.2648 116.412 14.477 116.342 14.6468 116.207C14.8167 116.072 14.9332 115.882 14.9757 115.669C14.997 115.54 14.9902 115.408 14.9559 115.282C14.9215 115.156 14.8604 115.039 14.7767 114.939C14.693 114.839 14.5887 114.758 14.4709 114.702C14.353 114.646 14.2245 114.616 14.0941 114.614Z" fill="white"/>
<path d="M14.0942 119.989C14.2869 119.989 14.4744 120.051 14.6291 120.166C14.7838 120.281 14.8974 120.443 14.953 120.627C15.0087 120.812 15.0034 121.009 14.9381 121.191C14.8728 121.372 14.7508 121.528 14.5902 121.634C14.4297 121.741 14.2391 121.793 14.0468 121.783C13.8544 121.772 13.6704 121.7 13.5221 121.577C13.3738 121.454 13.269 121.286 13.2233 121.099C13.1776 120.912 13.1934 120.715 13.2684 120.537C13.3367 120.375 13.4515 120.236 13.5985 120.138C13.7454 120.041 13.9179 119.989 14.0942 119.989Z" fill="white"/>
<path d="M172.454 67.1233C172.422 67.3666 172.372 67.6071 172.303 67.8425L186.387 84.7195L191.647 83.8124L194.053 91.5782L184.897 94.0897C184.157 94.2926 183.371 94.2499 182.658 93.968C181.945 93.6861 181.342 93.1802 180.94 92.5263L167.85 71.2142C166.906 71.2169 165.983 70.9317 165.204 70.3967C164.426 69.8617 163.829 69.1021 163.492 68.2191C163.155 67.336 163.095 66.3713 163.32 65.4533C163.544 64.5352 164.043 63.7074 164.749 63.0798C165.455 62.4523 166.336 62.0547 167.273 61.9401C168.211 61.8255 169.161 61.9992 169.997 62.4382C170.833 62.8771 171.516 63.5605 171.955 64.3974C172.394 65.2343 172.568 66.1851 172.454 67.1233Z" fill="#FFB6B6"/>
<path d="M187.01 83.7785C187.161 83.5345 187.362 83.3259 187.6 83.1669C187.839 83.0079 188.109 82.9022 188.392 82.8571L198.273 81.2801C199.671 80.8387 201.187 80.9701 202.488 81.6454C203.789 82.3207 204.77 83.4848 205.215 84.8826C205.66 86.2804 205.533 87.7976 204.861 89.1018C204.19 90.4059 203.03 91.3905 201.634 91.8396L192.606 96.2323C192.348 96.3577 192.067 96.426 191.78 96.4326C191.494 96.4392 191.209 96.3839 190.946 96.2706C190.683 96.1572 190.447 95.9884 190.255 95.7757C190.063 95.563 189.919 95.3114 189.833 95.0379L186.805 85.4274C186.719 85.1539 186.692 84.8651 186.728 84.5805C186.763 84.2959 186.86 84.0224 187.01 83.7785Z" fill="#3F3D56"/>
<path d="M187.561 220.485H183.291L181.26 204.001L187.562 204.002L187.561 220.485Z" fill="#FFB6B6"/>
<path d="M188.65 224.628L174.881 224.627V224.453C174.881 223.031 175.446 221.667 176.451 220.661C177.456 219.655 178.819 219.09 180.241 219.09L188.651 219.09L188.65 224.628Z" fill="#2F2E41"/>
<path d="M232.145 220.485H227.875L225.844 204.001L232.146 204.002L232.145 220.485Z" fill="#FFB6B6"/>
<path d="M233.234 224.628L219.465 224.627V224.453C219.465 223.031 220.03 221.667 221.035 220.661C222.04 219.655 223.403 219.09 224.825 219.09L233.235 219.09L233.234 224.628Z" fill="#2F2E41"/>
<path d="M189.228 120.076L207.733 114.725C214.474 119.51 219.128 129.101 217.62 141.51C215.191 161.507 229.254 187.22 235.318 213.272L224.831 213.602L201.867 158.603L188.404 214.747L179.036 215.042L185.301 137.737L189.228 120.076Z" fill="#2F2E41"/>
<path d="M197.468 71.4443C202.755 71.4443 207.041 67.1553 207.041 61.8645C207.041 56.5738 202.755 52.2848 197.468 52.2848C192.182 52.2848 187.896 56.5738 187.896 61.8645C187.896 67.1553 192.182 71.4443 197.468 71.4443Z" fill="#FFB6B6"/>
<path d="M187.728 104.463C185.613 100.746 184.567 96.2315 186.409 92.3712C186.872 91.3991 188.137 90.4804 188.799 89.631L196.195 78.595L204.546 77.2505C211.773 83.3166 205.599 104.042 211.52 117.636L186.79 130.883C188.558 124.126 190.944 110.111 187.728 104.463Z" fill="#3F3D56"/>
<path d="M187.835 58.0286C187.835 58.0286 188.484 56.8271 192.364 58.3771C193.721 58.9197 194.358 58.7949 194.446 59.9755C194.761 64.4184 196.385 68.6683 199.113 72.1879L199.142 72.2261L201.082 70.4545L203.576 72.4475L214.107 72.6689C214.107 72.6689 215.77 64.4756 210.227 55.175C204.685 45.8744 193.322 50.9676 193.322 50.9676C185.563 51.4105 187.835 58.0286 187.835 58.0286Z" fill="#2F2E41"/>
<path d="M163.398 45.7837L95.7906 36.4884C95.478 36.4437 95.1594 36.4709 94.8589 36.5678C94.5728 36.6622 94.3117 36.82 94.095 37.0294C93.8709 37.246 93.6947 37.5072 93.5778 37.7963C93.4499 38.1151 93.3852 38.4559 93.3873 38.7995V111.632C93.3863 111.981 93.4509 112.326 93.5778 112.65C93.6958 112.952 93.8713 113.228 94.0947 113.462C94.3101 113.688 94.5703 113.866 94.8585 113.985C95.1536 114.105 95.4719 114.159 95.7903 114.141L163.398 110.415C163.626 110.4 163.847 110.328 164.041 110.205C164.245 110.076 164.423 109.908 164.563 109.71C164.718 109.494 164.836 109.254 164.915 109C165.001 108.724 165.044 108.436 165.044 108.147V48.184C165.044 47.8914 165 47.6004 164.915 47.3206C164.835 47.0579 164.717 46.8088 164.563 46.5816C164.423 46.3721 164.246 46.1897 164.041 46.043C163.85 45.907 163.63 45.8181 163.398 45.7837Z" fill="#F0B000"/>
<path opacity="0.2" d="M163.398 45.7837L95.7906 36.4884C95.478 36.4437 95.1594 36.4709 94.8589 36.5678C94.5728 36.6622 94.3117 36.82 94.095 37.0294C93.8709 37.246 93.6947 37.5072 93.5778 37.7963C93.4499 38.1151 93.3852 38.4559 93.3873 38.7995V111.632C93.3863 111.981 93.4509 112.326 93.5778 112.65C93.6958 112.952 93.8713 113.228 94.0947 113.462C94.3101 113.688 94.5703 113.866 94.8585 113.985C95.1536 114.105 95.4719 114.159 95.7903 114.141L163.398 110.415C163.626 110.4 163.847 110.328 164.041 110.205C164.245 110.076 164.423 109.908 164.563 109.71C164.718 109.494 164.836 109.254 164.915 109C165.001 108.724 165.044 108.436 165.044 108.147V48.184C165.044 47.8914 165 47.6004 164.915 47.3206C164.835 47.0579 164.717 46.8088 164.563 46.5816C164.423 46.3721 164.246 46.1897 164.041 46.043C163.85 45.907 163.63 45.8181 163.398 45.7837Z" fill="black"/>
<path d="M166.185 45.7837L98.5772 36.4884C98.2646 36.4437 97.946 36.4709 97.6455 36.5678C97.3594 36.6622 97.0983 36.82 96.8817 37.0294C96.6575 37.246 96.4813 37.5072 96.3644 37.7963C96.2365 38.1151 96.1718 38.4559 96.1739 38.7995V111.632C96.1729 111.981 96.2375 112.326 96.3644 112.65C96.4824 112.952 96.658 113.228 96.8813 113.462C97.0967 113.688 97.3569 113.866 97.6451 113.985C97.9403 114.105 98.2586 114.159 98.5769 114.141L166.185 110.415C166.413 110.4 166.634 110.328 166.827 110.205C167.032 110.076 167.209 109.908 167.35 109.71C167.504 109.494 167.623 109.254 167.701 109C167.787 108.724 167.831 108.436 167.831 108.147V48.184C167.83 47.8914 167.787 47.6004 167.701 47.3206C167.622 47.0579 167.503 46.8088 167.35 46.5816C167.209 46.3721 167.032 46.1897 166.827 46.043C166.636 45.907 166.416 45.8181 166.185 45.7837Z" fill="#F0B000"/>
<path d="M165.894 104.011C166.078 104.173 166.249 104.35 166.405 104.539L188.263 102.303L190.456 97.4326L198.233 99.7837L195.188 108.783C194.942 109.51 194.467 110.138 193.835 110.572C193.202 111.006 192.446 111.222 191.679 111.19L166.705 110.119C166.179 110.903 165.426 111.509 164.548 111.855C163.669 112.202 162.706 112.272 161.786 112.057C160.866 111.842 160.034 111.352 159.399 110.652C158.765 109.952 158.358 109.075 158.234 108.138C158.109 107.201 158.273 106.249 158.703 105.407C159.132 104.565 159.808 103.875 160.64 103.427C161.471 102.979 162.419 102.795 163.358 102.899C164.296 103.004 165.181 103.391 165.894 104.011Z" fill="#FFB6B6"/>
<path d="M187.833 101.259C187.715 100.998 187.655 100.714 187.657 100.427C187.659 100.141 187.722 99.8577 187.843 99.5978L192.067 90.5199C192.484 89.1134 193.441 87.9296 194.728 87.2282C196.016 86.5268 197.529 86.365 198.935 86.7783C200.342 87.1915 201.527 88.1462 202.232 89.4328C202.936 90.7195 203.102 92.2332 202.692 93.6419L201.277 103.588C201.237 103.872 201.136 104.144 200.981 104.385C200.826 104.626 200.621 104.831 200.38 104.986C200.139 105.141 199.867 105.242 199.584 105.282C199.3 105.322 199.011 105.301 198.736 105.219L189.083 102.352C188.809 102.271 188.555 102.131 188.339 101.942C188.123 101.754 187.951 101.521 187.833 101.259Z" fill="#3F3D56"/>
<path d="M290.652 225H157.945C157.853 225 157.764 224.963 157.699 224.898C157.633 224.833 157.597 224.744 157.597 224.651C157.597 224.559 157.633 224.47 157.699 224.405C157.764 224.34 157.853 224.303 157.945 224.303H290.652C290.744 224.303 290.833 224.34 290.898 224.405C290.963 224.47 291 224.559 291 224.651C291 224.744 290.963 224.833 290.898 224.898C290.833 224.963 290.744 225 290.652 225Z" fill="#CACACA"/>
</g>
<defs>
<clipPath id="clip0_93_206">
<rect width="291" height="225" fill="white"/>
</clipPath>
</defs>
</svg>
