<svg width="368" height="177" viewBox="0 0 368 177" fill="none" xmlns="http://www.w3.org/2000/svg">
<g clip-path="url(#clip0_4_856)">
<path d="M5.60695 120.995C-2.67433 102.693 -2.36898 79.4959 10.4833 64.0527C14.7831 85.4673 26.5258 104.672 43.6337 118.269C50.2506 123.489 58.1541 128.607 59.9617 136.834C61.0865 141.954 59.4922 147.368 56.736 151.828C53.9796 156.287 50.1376 159.956 46.3392 163.571L45.9131 164.808C29.3853 153.375 13.8882 139.296 5.60695 120.995Z" fill="#F0F0F0"/>
<path d="M10.841 64.276C7.88323 80.4577 10.0805 97.6882 17.2698 112.514C18.8241 115.719 20.68 118.835 23.1648 121.413C25.6061 123.907 28.6715 125.703 32.0422 126.613C35.1681 127.525 38.4712 128.096 41.3208 129.751C44.3244 131.496 46.1884 134.423 46.9145 137.78C47.803 141.887 47.1613 146.069 46.3916 150.136C45.5369 154.652 44.5776 159.329 45.8161 163.868C45.9661 164.418 45.1031 164.619 44.9533 164.069C42.7986 156.171 46.9879 148.382 46.4023 140.441C46.1291 136.736 44.7365 133.09 41.5567 130.943C38.776 129.066 35.3703 128.474 32.1973 127.578C28.8656 126.638 25.8736 125.201 23.3275 122.817C20.7231 120.379 18.7413 117.328 17.1118 114.177C13.47 107.003 10.9799 99.3017 9.73261 91.355C8.25877 82.2933 8.34728 73.0466 9.99434 64.0148C10.0965 63.4558 10.9425 63.7207 10.841 64.276Z" fill="white"/>
<path d="M14.6785 107.818C11.9956 108.677 9.09446 108.555 6.49311 107.474C3.89177 106.394 1.75964 104.424 0.477502 101.918C0.219815 101.41 0.997878 100.986 1.25591 101.495C2.44552 103.831 4.43178 105.665 6.85621 106.667C9.28064 107.668 11.9835 107.771 14.477 106.956C15.0191 106.779 15.2175 107.643 14.6785 107.818Z" fill="white"/>
<path d="M30.3963 126.359C33.0772 121.267 33.7384 115.352 32.2481 109.794C32.1 109.243 32.963 109.043 33.1109 109.593C34.6509 115.379 33.9503 121.533 31.1489 126.827C30.8815 127.331 30.1304 126.861 30.3963 126.359Z" fill="white"/>
<path d="M9.39772 82.5809C10.5051 82.4646 11.5663 82.0753 12.4859 81.4481C13.4055 80.8208 14.1547 79.9751 14.6664 78.987C14.9272 78.4796 15.6781 78.9501 15.4189 79.4542C14.8486 80.5433 14.0199 81.4762 13.0055 82.1715C11.991 82.8668 10.8215 83.3033 9.5992 83.4429C9.48509 83.4657 9.36658 83.4442 9.26774 83.3828C9.1689 83.3215 9.09715 83.2248 9.06707 83.1125C9.04097 82.9982 9.06106 82.8783 9.12297 82.7787C9.18489 82.6792 9.28362 82.6081 9.39772 82.5809Z" fill="white"/>
<path d="M78.5463 64.2319C78.3924 64.5535 78.2386 64.875 78.0883 65.203C76.0423 69.5362 74.3521 74.0282 73.0342 78.6348C72.9266 78.9893 72.823 79.3502 72.7259 79.7071C69.6692 90.8393 68.7078 102.442 69.8904 113.925C70.3652 118.493 71.1873 123.02 72.3494 127.464C73.9547 133.601 76.184 140.128 75.681 146.257C75.6357 146.897 75.5507 147.534 75.4267 148.163L47.4568 165.232C47.3738 165.238 47.2943 165.252 47.2109 165.259L46.1253 165.991C46.0494 165.766 45.9754 165.531 45.8995 165.306C45.8549 165.176 45.8165 165.042 45.7719 164.912C45.7441 164.823 45.7167 164.735 45.6866 164.657C45.6772 164.628 45.6682 164.598 45.6627 164.576C45.6326 164.498 45.6129 164.422 45.5867 164.35C45.1698 163.038 44.7614 161.72 44.3614 160.397C44.3575 160.391 44.3575 160.391 44.3599 160.381C41.3384 150.292 39.1333 139.864 38.5827 129.432C38.5662 129.118 38.5456 128.798 38.5419 128.476C38.3198 123.773 38.4829 119.059 39.0294 114.382C39.337 111.822 39.774 109.279 40.3389 106.763C41.811 100.266 44.2969 94.0397 47.7054 88.3137C54.5021 76.9001 64.8766 67.7853 77.5737 64.4753C77.8986 64.3909 78.2175 64.31 78.5463 64.2319Z" fill="#F0F0F0"/>
<path d="M78.7002 64.625C66.5873 75.766 57.9583 90.8454 54.7646 107.007C54.0741 110.501 53.678 114.106 54.1085 117.659C54.5548 121.119 55.9202 124.396 58.0631 127.151C60.0094 129.759 62.3026 132.202 63.5804 135.238C64.9273 138.437 64.6516 141.896 63.2085 145.013C61.4428 148.827 58.4107 151.779 55.3452 154.564C51.9416 157.655 48.3572 160.813 46.6104 165.182C46.3988 165.712 45.5889 165.353 45.8002 164.824C48.8393 157.222 56.8784 153.522 61.196 146.83C63.2106 143.707 64.2956 139.958 63.0503 136.331C61.9614 133.16 59.5988 130.639 57.6052 128.015C55.5119 125.26 53.9889 122.312 53.3924 118.878C52.7822 115.364 53.0381 111.737 53.6361 108.24C55.0515 100.322 57.7042 92.6746 61.4971 85.5793C65.7809 77.4575 71.4238 70.1277 78.1816 63.9071C78.6 63.5222 79.1159 64.2427 78.7002 64.625Z" fill="white"/>
<path d="M55.5253 101.699C52.8655 100.771 50.6224 98.9289 49.1967 96.5012C47.771 94.0735 47.2554 91.2185 47.742 88.446C47.8424 87.8854 48.7191 88.0149 48.6186 88.5763C48.1607 91.1571 48.6412 93.8166 49.9735 96.0745C51.3058 98.3325 53.402 100.04 55.8839 100.89C56.4231 101.075 56.0614 101.883 55.5253 101.699Z" fill="white"/>
<path d="M56.9019 125.958C62.1113 123.505 66.2037 119.18 68.363 113.845C68.5766 113.317 69.3865 113.676 69.1732 114.204C66.9157 119.75 62.6478 124.243 57.2213 126.784C56.7039 127.026 56.3873 126.199 56.9019 125.958Z" fill="white"/>
<path d="M66.5171 78.3722C67.4714 78.9455 68.5532 79.273 69.6655 79.3254C70.7778 79.3777 71.8856 79.1532 72.8896 78.672C73.4036 78.4237 73.7196 79.251 73.2089 79.4977C72.0972 80.0242 70.8734 80.2706 69.6444 80.2155C68.4154 80.1604 67.2186 79.8055 66.1586 79.1817C66.0537 79.1313 65.972 79.0428 65.9301 78.9344C65.8881 78.8259 65.8891 78.7056 65.9328 78.5978C65.9808 78.4909 66.0691 78.4072 66.1785 78.365C66.2879 78.3227 66.4096 78.3253 66.5171 78.3722Z" fill="white"/>
<path d="M245.518 60.498L245.399 60.2538C245.363 60.1795 241.8 52.7383 243.786 45.4038C245.772 38.0693 252.603 33.4373 252.671 33.3914L252.897 33.2407L253.015 33.4849C253.052 33.5592 256.614 41.0003 254.628 48.3348C252.642 55.6694 245.811 60.3018 245.743 60.3473L245.518 60.498ZM254.342 47.5055C255.675 41.2513 246.388 38.7555 244.444 44.8477C244.373 45.071 244.306 45.297 244.244 45.5257C242.509 51.9296 245.115 58.4374 245.709 59.7897C246.905 58.9207 252.437 54.6146 254.172 48.2107C254.235 47.9774 254.292 47.7424 254.342 47.5055Z" fill="#3F3D56"/>
<path d="M236.332 48.2732C238.318 55.6082 245.122 60.1506 245.122 60.1506C245.122 60.1506 248.705 52.8013 246.719 45.4663C244.733 38.1313 237.929 33.5889 237.929 33.5889C237.929 33.5889 234.346 40.9383 236.332 48.2732Z" fill="#F3C033"/>
<path d="M245.626 60.3953L245.355 60.3805C245.272 60.3761 237.033 59.8688 231.582 54.5691C226.132 49.2694 225.403 41.0532 225.396 40.9706L225.374 40.7006L225.645 40.7154C225.728 40.7198 233.967 41.2271 239.417 46.5268C244.867 51.8264 245.596 60.0427 245.603 60.1253L245.626 60.3953ZM231.913 54.2305C236.672 58.8621 243.628 59.7478 245.101 59.8872C244.922 58.4203 243.846 51.4978 239.087 46.8663C238.917 46.7008 238.744 46.5401 238.568 46.3841C233.788 42.1324 227.071 49.0061 231.406 53.7095C231.571 53.8878 231.74 54.0614 231.913 54.2305Z" fill="#3F3D56"/>
<path d="M251.481 46.6967C246.031 51.9969 245.366 60.1445 245.366 60.1445C245.366 60.1445 253.535 59.6988 258.985 54.3987C264.435 49.0986 265.102 40.9505 265.102 40.9505C265.102 40.9505 256.931 41.3962 251.481 46.6967Z" fill="#3F3D56"/>
<path d="M245.252 32.3781C247.215 32.3781 248.806 30.7885 248.806 28.8275C248.806 26.8666 247.215 25.2769 245.252 25.2769C243.289 25.2769 241.698 26.8666 241.698 28.8275C241.698 30.7885 243.289 32.3781 245.252 32.3781Z" fill="#F3C033"/>
<path d="M238.803 58.686H252.361C253.985 58.686 255.542 59.3305 256.69 60.4777C257.838 61.6249 258.484 63.1808 258.484 64.8032C258.484 68.1817 256.567 80.4357 253.186 80.4357L236.567 80.8726C233.185 80.8726 232.681 68.1817 232.681 64.8032C232.681 63.1808 233.326 61.6249 234.474 60.4777C235.622 59.3305 237.18 58.686 238.803 58.686Z" fill="#E6E6E6"/>
<path d="M209.87 58.5086C209.667 58.6399 209.475 58.787 209.295 58.9486L188.279 53.5956L186.846 48.5301L178.911 49.6928L180.576 58.9071C180.711 59.6515 181.084 60.3322 181.638 60.847C182.193 61.3618 182.9 61.6829 183.653 61.7621L208.192 64.344C208.592 65.1857 209.239 65.8858 210.047 66.3512C210.855 66.8166 211.786 67.0252 212.715 66.9492C213.645 66.8732 214.529 66.5163 215.251 65.9259C215.972 65.3355 216.496 64.5396 216.754 63.6441C217.012 62.7486 216.99 61.796 216.693 60.9129C216.395 60.0298 215.836 59.2582 215.089 58.7007C214.341 58.1431 213.442 57.8261 212.51 57.7918C211.578 57.7575 210.658 58.0075 209.871 58.5086H209.87Z" fill="#FFB6B6"/>
<path d="M177.492 54.2908L182.907 58.9573L190.481 65.4809L193.827 48.379L194.177 46.6006L194.452 45.1893L186.777 31.8319L180.379 32.199L179.941 32.2252L179.933 32.3213L179.832 33.2171L178.52 45.0058L178.489 45.2898L177.492 54.2908Z" fill="#E6E6E6"/>
<path d="M212.881 171.249H218.242L220.793 150.587H212.88L212.881 171.249Z" fill="#FFB6B6"/>
<path d="M156.902 171.686H162.263L164.814 151.024H156.901L156.902 171.686Z" fill="#FFB6B6"/>
<path d="M152.616 162.587L167.048 164.772L188.045 93.7773L210.345 165.209L226.526 163.024L205.534 80.0049V73.4507L202.691 63.6195L202.989 60.9585L205.057 42.3492L205.954 34.2788L206.012 33.7576C206.061 33.32 205.945 32.8801 205.687 32.5233C205.428 32.1665 205.047 31.9185 204.616 31.8276L197.881 30.4119H186.875L180.38 32.199L179.934 32.3213L179.733 32.3781L179.833 33.2171L181.355 45.967L181.438 46.6662L182.908 58.9573L183.232 61.6533C170.549 70.8291 170.111 80.0049 170.111 80.0049L152.616 162.587Z" fill="#2F2E41"/>
<path d="M193.707 24.8846C199.64 24.8846 204.449 20.0798 204.449 14.1528C204.449 8.22582 199.64 3.42105 193.707 3.42105C187.775 3.42105 182.966 8.22582 182.966 14.1528C182.966 20.0798 187.775 24.8846 193.707 24.8846Z" fill="#FFB6B6"/>
<path d="M182.425 59.1875L182.028 62.2203L203.277 64.9968L203.674 61.964L182.425 59.1875Z" fill="#F3C033"/>
<path d="M232.175 62.878C231.972 63.0094 231.779 63.1565 231.599 63.318L210.583 57.965L209.15 52.8996L201.215 54.0623L202.881 63.2765C203.015 64.0209 203.388 64.7016 203.943 65.2164C204.497 65.7312 205.204 66.0523 205.957 66.1315L230.497 68.7134C230.897 69.5551 231.543 70.2553 232.351 70.7207C233.159 71.1861 234.09 71.3946 235.019 71.3187C235.949 71.2427 236.833 70.8857 237.555 70.2953C238.276 69.7049 238.801 68.909 239.058 68.0135C239.316 67.118 239.295 66.1654 238.997 65.2823C238.7 64.3993 238.14 63.6276 237.393 63.0701C236.645 62.5126 235.746 62.1956 234.814 62.1613C233.882 62.1269 232.962 62.377 232.176 62.878H232.175Z" fill="#FFB6B6"/>
<path d="M199.848 34.5628L203.566 31.7227C204.572 31.3417 205.948 32.424 206.19 33.4705L211.438 54.8807L200.504 62.7456L198.974 60.3425L199.848 34.5628Z" fill="#E6E6E6"/>
<path d="M201.938 5.26758C203.947 5.02158 206.151 5.19548 207.717 6.4766C209.283 7.75771 209.788 10.4213 208.306 11.7977C206.994 13.0163 204.941 12.7297 203.183 13.0762C201.669 13.4152 200.312 14.2521 199.33 15.4528C198.348 16.6535 197.798 18.1487 197.767 19.6989C197.793 24.1444 202.064 27.511 202.831 31.8896C203.355 34.8783 202.092 38.0234 199.911 40.1347C197.73 42.246 194.732 43.3869 191.711 43.6958C188.69 44.0047 185.635 43.5328 182.699 42.7573C179.751 41.9786 176.848 40.8736 174.375 39.0922C171.901 37.3108 169.873 34.7988 169.079 31.8573C168.285 28.9158 168.855 25.543 170.902 23.2845C173.246 20.6982 177.145 19.809 179.172 16.968C181.446 13.7836 180.603 9.249 182.443 5.79671C183.671 3.49184 185.996 1.91972 188.475 1.09128C190.953 0.262835 193.6 0.0994176 196.212 0.019457C197.585 -0.0242372 199 -0.0369058 200.279 0.463394C201.558 0.963693 202.685 2.10324 202.749 3.47436C202.814 4.84549 201.938 5.26758 201.938 5.26758Z" fill="#2F2E41"/>
<path d="M82.0098 176.42H37.3352C36.5363 176.419 35.7704 176.101 35.2056 175.537C34.6407 174.972 34.323 174.207 34.3221 173.409V145.581C34.3252 142.912 35.3877 140.353 37.2767 138.466C39.1657 136.579 41.7268 135.517 44.3982 135.514H82.0098C82.8086 135.515 83.5744 135.833 84.1393 136.397C84.7042 136.962 85.0219 137.727 85.0228 138.525V173.409C85.022 174.207 84.7043 174.972 84.1394 175.537C83.5746 176.101 82.8087 176.419 82.0098 176.42ZM44.3982 136.388C41.9587 136.391 39.62 137.361 37.895 139.084C36.17 140.807 35.1996 143.144 35.1968 145.581V173.409C35.1974 173.975 35.4229 174.519 35.8238 174.919C36.2247 175.32 36.7682 175.545 37.3352 175.546H82.0098C82.5767 175.545 83.1203 175.32 83.5212 174.919C83.9221 174.519 84.1476 173.975 84.1482 173.409V138.525C84.1476 137.958 83.9221 137.415 83.5212 137.015C83.1203 136.614 82.5767 136.389 82.0098 136.388H44.3982Z" fill="#3F3D56"/>
<path d="M45.8761 137.494C43.4239 137.497 41.0729 138.472 39.3389 140.204C37.6049 141.936 36.6295 144.285 36.6267 146.735V172.255C36.6274 172.834 36.858 173.39 37.2679 173.799C37.6779 174.209 38.2337 174.439 38.8134 174.44H80.5318C81.1116 174.439 81.6674 174.209 82.0773 173.799C82.4872 173.39 82.7178 172.834 82.7185 172.255V139.679C82.7178 139.1 82.4872 138.545 82.0773 138.135C81.6674 137.725 81.1116 137.495 80.5318 137.494H45.8761Z" fill="#F3C033"/>
<path d="M62.8869 145.83H56.6916C56.4017 145.83 56.1238 145.714 55.9188 145.51C55.7139 145.305 55.5986 145.027 55.5983 144.737V134.654H63.9803V144.737C63.9799 145.027 63.8647 145.305 63.6597 145.51C63.4547 145.714 63.1768 145.83 62.8869 145.83Z" fill="#3F3D56"/>
<path d="M310.992 126.004L312.905 120.909L312.973 120.87L328.384 112.071C328.55 111.977 328.73 111.909 328.917 111.87C329.346 111.779 329.793 111.846 330.178 112.056C330.562 112.267 330.858 112.609 331.012 113.019C331.166 113.43 331.168 113.881 331.018 114.293C330.867 114.705 330.574 115.049 330.191 115.263L310.992 126.004Z" fill="#3F3D56"/>
<path d="M254.321 126.004L235.124 115.263C234.741 115.049 234.448 114.705 234.297 114.294C234.147 113.882 234.148 113.43 234.303 113.02C234.457 112.609 234.753 112.267 235.137 112.056C235.522 111.845 235.97 111.779 236.399 111.87C236.586 111.909 236.765 111.977 236.931 112.071L252.411 120.909L254.321 126.004Z" fill="#3F3D56"/>
<path d="M312.524 126.637H252.79L247.766 103.211H317.548L312.524 126.637Z" fill="#3F3D56"/>
<path d="M314.491 124.792H250.823L246.443 104.858C246.31 104.251 246.314 103.622 246.457 103.017C246.599 102.412 246.875 101.847 247.264 101.363C247.654 100.879 248.147 100.488 248.708 100.22C249.269 99.9517 249.883 99.8123 250.504 99.8123H314.809C315.431 99.8123 316.045 99.9517 316.606 100.22C317.166 100.488 317.66 100.879 318.049 101.363C318.439 101.847 318.715 102.412 318.857 103.017C318.999 103.622 319.004 104.251 318.871 104.858L314.491 124.792ZM251.526 123.918H313.788L318.016 104.67C318.122 104.191 318.118 103.694 318.006 103.217C317.894 102.739 317.676 102.293 317.368 101.911C317.06 101.528 316.671 101.22 316.228 101.008C315.785 100.796 315.3 100.686 314.809 100.686H250.504C250.013 100.686 249.529 100.796 249.086 101.008C248.643 101.22 248.253 101.528 247.946 101.911C247.638 102.293 247.42 102.739 247.308 103.217C247.196 103.694 247.192 104.191 247.297 104.67L251.526 123.918Z" fill="#3F3D56"/>
<path opacity="0.1" d="M312.524 126.637H252.79L247.766 103.211H317.548L312.524 126.637Z" fill="black"/>
<path d="M311.945 176.485H253.369C252.574 176.485 251.812 176.169 251.25 175.608C250.688 175.046 250.372 174.285 250.371 173.491V123.451H314.942V173.491C314.941 174.285 314.625 175.046 314.063 175.608C313.501 176.169 312.74 176.485 311.945 176.485ZM251.246 124.325V173.491C251.247 174.053 251.471 174.592 251.869 174.99C252.266 175.387 252.806 175.611 253.369 175.612H311.945C312.508 175.611 313.047 175.387 313.445 174.99C313.843 174.592 314.067 174.053 314.068 173.491V124.325H251.246Z" fill="#3F3D56"/>
<path d="M252.73 125.46V172.072C252.73 172.71 252.984 173.32 253.435 173.771C253.886 174.221 254.497 174.475 255.135 174.476H310.179C310.817 174.475 311.428 174.221 311.879 173.771C312.33 173.32 312.584 172.71 312.584 172.072V125.46H252.73Z" fill="#3F3D56"/>
<path d="M317.767 103.429H247.547V103.211C247.548 102.466 247.844 101.752 248.371 101.226C248.898 100.699 249.613 100.403 250.358 100.402H314.955C315.701 100.403 316.415 100.699 316.942 101.226C317.469 101.752 317.766 102.466 317.767 103.211V103.429Z" fill="#F3C033"/>
<path d="M97.0039 145.498C94.8489 145.5 92.7828 146.357 91.2589 147.879C89.7351 149.402 88.8779 151.466 88.8754 153.619V172.256C88.876 172.835 89.1066 173.391 89.5166 173.8C89.9265 174.21 90.4823 174.44 91.062 174.441H122.842C123.422 174.44 123.978 174.21 124.387 173.8C124.797 173.391 125.028 172.835 125.029 172.256V147.683C125.028 147.103 124.797 146.548 124.387 146.139C123.978 145.729 123.422 145.499 122.842 145.498H97.0039Z" fill="#3F3D56"/>
<path d="M129.963 143.634H97.843C97.028 143.633 96.2467 143.309 95.6703 142.733C95.094 142.158 94.7698 141.377 94.7688 140.563V113.625C94.7697 112.811 95.0939 112.03 95.6702 111.455C96.2465 110.879 97.0279 110.555 97.843 110.554H126.506C128.958 110.557 131.309 111.531 133.042 113.263C134.776 114.995 135.751 117.344 135.754 119.793V137.848C135.752 139.382 135.141 140.853 134.056 141.937C132.97 143.022 131.498 143.632 129.963 143.634ZM97.843 111.428C97.2598 111.429 96.7008 111.66 96.2884 112.072C95.8761 112.484 95.6441 113.043 95.6435 113.625V140.563C95.6442 141.145 95.8762 141.704 96.2885 142.116C96.7009 142.528 97.2599 142.759 97.843 142.76H129.963C131.267 142.758 132.516 142.241 133.438 141.32C134.359 140.399 134.878 139.151 134.879 137.848V119.793C134.877 117.576 133.994 115.449 132.424 113.881C130.854 112.313 128.726 111.431 126.506 111.428L97.843 111.428Z" fill="#3F3D56"/>
<path d="M124.37 176.509H89.5335C88.7185 176.508 87.9372 176.184 87.3609 175.609C86.7846 175.033 86.4604 174.252 86.4594 173.438V152.437C86.462 150.049 87.4127 147.759 89.103 146.071C90.7932 144.382 93.085 143.432 95.4754 143.429H124.37C125.185 143.43 125.967 143.754 126.543 144.33C127.119 144.906 127.444 145.686 127.444 146.501V173.438C127.443 174.252 127.119 175.033 126.543 175.609C125.967 176.184 125.185 176.508 124.37 176.509ZM95.4754 144.303C93.3169 144.306 91.2475 145.164 89.7212 146.688C88.195 148.213 87.3365 150.281 87.334 152.437V173.438C87.3348 174.021 87.5668 174.579 87.9791 174.991C88.3914 175.403 88.9504 175.634 89.5335 175.635H124.37C124.953 175.634 125.512 175.403 125.925 174.991C126.337 174.579 126.569 174.021 126.57 173.438V146.501C126.569 145.918 126.337 145.36 125.925 144.948C125.513 144.536 124.953 144.304 124.37 144.303H95.4754Z" fill="#3F3D56"/>
<path d="M99.3715 112.623C98.7918 112.623 98.236 112.854 97.826 113.263C97.4161 113.673 97.1855 114.228 97.1848 114.807V139.381C97.1855 139.96 97.4161 140.515 97.826 140.925C98.236 141.334 98.7918 141.565 99.3715 141.565H128.435C129.735 141.564 130.981 141.047 131.9 140.129C132.82 139.211 133.337 137.965 133.338 136.667V120.975C133.336 118.761 132.454 116.638 130.887 115.072C129.319 113.506 127.194 112.625 124.978 112.623H99.3715Z" fill="#E6E6E6"/>
<path d="M117.611 119.123H113.096C112.806 119.122 112.528 119.007 112.323 118.802C112.119 118.598 112.003 118.32 112.003 118.03V110.219H118.704V118.03C118.704 118.32 118.588 118.598 118.383 118.802C118.178 119.007 117.9 119.122 117.611 119.123Z" fill="#3F3D56"/>
<path d="M212.659 166.866L219.073 166.483V169.229L225.172 173.437C225.473 173.644 225.7 173.943 225.819 174.289C225.938 174.634 225.944 175.009 225.835 175.358C225.726 175.708 225.508 176.013 225.214 176.229C224.919 176.446 224.562 176.563 224.196 176.563H216.56L215.244 173.847L214.73 176.563H211.85L212.659 166.866Z" fill="#2F2E41"/>
<path d="M156.68 166.866L163.094 166.483V169.229L169.192 173.437C169.494 173.644 169.721 173.943 169.84 174.289C169.959 174.634 169.965 175.009 169.856 175.358C169.747 175.708 169.529 176.013 169.234 176.229C168.94 176.446 168.583 176.563 168.217 176.563H160.581L159.264 173.847L158.751 176.563H155.871L156.68 166.866Z" fill="#2F2E41"/>
<path d="M48.0749 168.055H36.1893C36.0733 168.055 35.9621 168.009 35.8801 167.927C35.798 167.845 35.752 167.734 35.752 167.618C35.752 167.502 35.798 167.391 35.8801 167.309C35.9621 167.227 36.0733 167.181 36.1893 167.181H48.0749C48.1909 167.181 48.3021 167.227 48.3841 167.309C48.4662 167.391 48.5122 167.502 48.5122 167.618C48.5122 167.734 48.4662 167.845 48.3841 167.927C48.3021 168.009 48.1909 168.055 48.0749 168.055Z" fill="#3F3D56"/>
<path d="M100.555 167.181H88.6696C88.5536 167.181 88.4424 167.135 88.3604 167.053C88.2784 166.971 88.2323 166.86 88.2323 166.744C88.2323 166.628 88.2784 166.517 88.3604 166.435C88.4424 166.353 88.5536 166.307 88.6696 166.307H100.555C100.671 166.307 100.782 166.353 100.864 166.435C100.947 166.517 100.993 166.628 100.993 166.744C100.993 166.86 100.947 166.971 100.864 167.053C100.782 167.135 100.671 167.181 100.555 167.181Z" fill="#F3C033"/>
<path d="M264.994 163.892H253.108C252.992 163.892 252.881 163.846 252.799 163.764C252.717 163.682 252.671 163.571 252.671 163.455C252.671 163.339 252.717 163.228 252.799 163.146C252.881 163.064 252.992 163.018 253.108 163.018H264.994C265.11 163.018 265.221 163.064 265.303 163.146C265.385 163.228 265.431 163.339 265.431 163.455C265.431 163.571 265.385 163.682 265.303 163.764C265.221 163.846 265.11 163.892 264.994 163.892Z" fill="#F3C033"/>
<path d="M269.805 159.522H257.919C257.803 159.522 257.692 159.476 257.61 159.394C257.528 159.312 257.482 159.201 257.482 159.085C257.482 158.969 257.528 158.858 257.61 158.776C257.692 158.694 257.803 158.648 257.919 158.648H269.805C269.92 158.648 270.032 158.694 270.114 158.776C270.196 158.858 270.242 158.969 270.242 159.085C270.242 159.201 270.196 159.312 270.114 159.394C270.032 159.476 269.92 159.522 269.805 159.522Z" fill="#F3C033"/>
<path d="M247.5 74.7554H235.615C235.499 74.7554 235.387 74.7094 235.305 74.6274C235.223 74.5455 235.177 74.4343 235.177 74.3185C235.177 74.2026 235.223 74.0914 235.305 74.0095C235.387 73.9276 235.499 73.8815 235.615 73.8815H247.5C247.616 73.8815 247.728 73.9276 247.81 74.0095C247.892 74.0914 247.938 74.2026 247.938 74.3185C247.938 74.4343 247.892 74.5455 247.81 74.6274C247.728 74.7094 247.616 74.7554 247.5 74.7554Z" fill="#F3C033"/>
<path d="M108.865 135.721H96.9791C96.8631 135.721 96.7519 135.675 96.6698 135.593C96.5878 135.511 96.5417 135.4 96.5417 135.284C96.5417 135.168 96.5878 135.057 96.6698 134.975C96.7519 134.893 96.8631 134.847 96.9791 134.847H108.865C108.981 134.847 109.092 134.893 109.174 134.975C109.256 135.057 109.302 135.168 109.302 135.284C109.302 135.4 109.256 135.511 109.174 135.593C109.092 135.675 108.981 135.721 108.865 135.721Z" fill="#3F3D56"/>
<path d="M108.865 132.225H96.9791C96.8631 132.225 96.7519 132.179 96.6698 132.097C96.5878 132.015 96.5417 131.904 96.5417 131.788C96.5417 131.672 96.5878 131.561 96.6698 131.479C96.7519 131.397 96.8631 131.351 96.9791 131.351H108.865C108.981 131.351 109.092 131.397 109.174 131.479C109.256 131.561 109.302 131.672 109.302 131.788C109.302 131.904 109.256 132.015 109.174 132.097C109.092 132.179 108.981 132.225 108.865 132.225Z" fill="#3F3D56"/>
<path d="M285.089 110.684H280.574C280.285 110.684 280.007 110.569 279.802 110.364C279.597 110.159 279.481 109.881 279.481 109.592V101.781H286.182V109.592C286.182 109.881 286.066 110.159 285.861 110.364C285.657 110.569 285.379 110.684 285.089 110.684Z" fill="#F3C033"/>
<path d="M368 176.126H2.38672V177H368V176.126Z" fill="#CCCCCC"/>
<path d="M109.301 151.798H104.787C104.497 151.798 104.219 151.683 104.014 151.478C103.809 151.273 103.694 150.995 103.693 150.706V142.895H110.394V150.706C110.394 150.995 110.279 151.273 110.074 151.478C109.869 151.683 109.591 151.798 109.301 151.798Z" fill="#F3C033"/>
</g>
<defs>
<clipPath id="clip0_4_856">
<rect width="368" height="177" fill="white"/>
</clipPath>
</defs>
</svg>
