<svg width="282" height="316" viewBox="0 0 282 316" fill="none" xmlns="http://www.w3.org/2000/svg">
<g clip-path="url(#clip0_4_785)">
<path d="M157.589 75.0934H155.852V27.529C155.852 20.2279 152.952 13.2258 147.788 8.06307C142.625 2.90038 135.622 9.21261e-06 128.319 0H27.533C23.9173 -9.12308e-06 20.337 0.71204 16.9966 2.09549C13.6561 3.47895 10.6209 5.50671 8.06421 8.063C5.50753 10.6193 3.47946 13.6541 2.09579 16.994C0.712117 20.334 -5.30512e-05 23.9138 -6.10351e-05 27.5289V288.471C-6.44568e-05 292.086 0.712086 295.666 2.09575 299.006C3.47941 302.346 5.50748 305.381 8.06416 307.937C10.6208 310.493 13.656 312.521 16.9965 313.904C20.337 315.288 23.9172 316 27.5329 316H128.319C135.621 316 142.625 313.1 147.788 307.937C152.952 302.774 155.852 295.772 155.852 288.471V108.951H157.589V75.0934Z" fill="#E6E6E6"/>
<path d="M129.43 7.16208H116.274C116.879 8.64515 117.11 10.2542 116.947 11.8476C116.783 13.4409 116.231 14.9696 115.337 16.2989C114.443 17.6283 113.237 18.7176 111.823 19.4708C110.409 20.224 108.832 20.618 107.23 20.6181H49.4907C47.8888 20.618 46.3115 20.224 44.8977 19.4708C43.4839 18.7176 42.2771 17.6283 41.3836 16.2989C40.4901 14.9696 39.9372 13.4409 39.7738 11.8475C39.6103 10.2542 39.8413 8.64512 40.4463 7.16205H28.1586C22.7054 7.16204 17.4755 9.328 13.6195 13.1834C9.76352 17.0389 7.59724 22.268 7.59723 27.7204V288.28C7.59723 293.732 9.7635 298.961 13.6195 302.817C17.4755 306.672 22.7053 308.838 28.1585 308.838H129.43C132.13 308.838 134.804 308.306 137.299 307.273C139.793 306.24 142.06 304.726 143.969 302.817C145.879 300.908 147.393 298.641 148.427 296.147C149.46 293.653 149.992 290.979 149.992 288.28V27.7204C149.992 25.0206 149.46 22.3473 148.427 19.8531C147.393 17.3588 145.879 15.0925 143.969 13.1835C142.06 11.2744 139.793 9.76013 137.299 8.72698C134.804 7.69383 132.13 7.16208 129.43 7.16208Z" fill="white"/>
<path d="M141.635 211.81H20.2072C19.6111 211.809 19.0395 211.572 18.618 211.151C18.1964 210.729 17.9593 210.158 17.9586 209.562V179.445C17.9593 178.849 18.1964 178.278 18.618 177.856C19.0395 177.435 19.6111 177.198 20.2072 177.197H141.635C142.231 177.198 142.803 177.435 143.224 177.856C143.646 178.278 143.883 178.849 143.884 179.445V209.562C143.883 210.158 143.646 210.73 143.224 211.151C142.803 211.572 142.231 211.809 141.635 211.81ZM20.2072 178.096C19.8495 178.097 19.5065 178.239 19.2535 178.492C19.0006 178.745 18.8583 179.088 18.858 179.445V209.562C18.8583 209.92 19.0006 210.263 19.2535 210.516C19.5065 210.769 19.8495 210.911 20.2072 210.911H141.635C141.993 210.911 142.336 210.769 142.589 210.516C142.842 210.263 142.984 209.92 142.984 209.562V179.445C142.984 179.088 142.842 178.745 142.589 178.492C142.336 178.239 141.993 178.097 141.635 178.096H20.2072Z" fill="#E6E6E6"/>
<path d="M35.9475 203.946C41.1635 203.946 45.3918 199.719 45.3918 194.503C45.3918 189.288 41.1635 185.06 35.9475 185.06C30.7315 185.06 26.5032 189.288 26.5032 194.503C26.5032 199.719 30.7315 203.946 35.9475 203.946Z" fill="#E6E6E6"/>
<path d="M57.7596 188.208C57.3467 188.215 56.953 188.384 56.6634 188.678C56.3738 188.973 56.2115 189.369 56.2115 189.782C56.2115 190.195 56.3738 190.591 56.6634 190.886C56.953 191.18 57.3467 191.349 57.7596 191.356H131.965C132.383 191.364 132.786 191.206 133.087 190.916C133.388 190.627 133.562 190.23 133.57 189.813C133.578 189.395 133.42 188.992 133.13 188.691C132.841 188.39 132.444 188.217 132.026 188.209L132.017 188.208C132 188.208 131.983 188.208 131.965 188.208H57.7596Z" fill="#E6E6E6"/>
<path d="M57.7596 197.651C57.3467 197.658 56.953 197.827 56.6634 198.121C56.3738 198.416 56.2115 198.812 56.2115 199.225C56.2115 199.638 56.3738 200.034 56.6634 200.329C56.953 200.623 57.3467 200.792 57.7596 200.799H131.965C132.382 200.805 132.784 200.645 133.083 200.355C133.383 200.065 133.554 199.668 133.561 199.251C133.568 198.834 133.409 198.432 133.12 198.132C132.83 197.832 132.434 197.659 132.017 197.651C132 197.651 131.983 197.651 131.965 197.651H57.7596Z" fill="#E6E6E6"/>
<path d="M141.635 262.173H20.2072C19.6111 262.172 19.0395 261.935 18.618 261.514C18.1964 261.092 17.9593 260.521 17.9586 259.925V229.808C17.9593 229.212 18.1964 228.641 18.618 228.219C19.0395 227.798 19.6111 227.561 20.2072 227.56H141.635C142.231 227.561 142.803 227.798 143.224 228.219C143.646 228.641 143.883 229.212 143.884 229.808V259.925C143.883 260.521 143.646 261.092 143.224 261.514C142.803 261.935 142.231 262.172 141.635 262.173ZM20.2072 228.459C19.8495 228.459 19.5065 228.602 19.2535 228.855C19.0006 229.107 18.8583 229.45 18.858 229.808V259.925C18.8583 260.283 19.0006 260.626 19.2535 260.878C19.5065 261.131 19.8495 261.274 20.2072 261.274H141.635C141.993 261.274 142.336 261.131 142.589 260.878C142.842 260.626 142.984 260.283 142.984 259.925V229.808C142.984 229.45 142.842 229.107 142.589 228.855C142.336 228.602 141.993 228.459 141.635 228.459H20.2072Z" fill="#E6E6E6"/>
<path d="M35.9475 254.309C41.1635 254.309 45.3918 250.081 45.3918 244.866C45.3918 239.651 41.1635 235.423 35.9475 235.423C30.7315 235.423 26.5032 239.651 26.5032 244.866C26.5032 250.081 30.7315 254.309 35.9475 254.309Z" fill="#E6E6E6"/>
<path d="M57.7596 238.571C57.3467 238.578 56.953 238.747 56.6634 239.041C56.3738 239.336 56.2115 239.732 56.2115 240.145C56.2115 240.558 56.3738 240.954 56.6634 241.249C56.953 241.543 57.3467 241.712 57.7596 241.719H131.965C132.382 241.724 132.784 241.565 133.083 241.274C133.383 240.984 133.554 240.587 133.561 240.171C133.568 239.754 133.409 239.352 133.12 239.052C132.83 238.752 132.434 238.579 132.017 238.571C132 238.571 131.983 238.571 131.965 238.571H57.7596Z" fill="#E6E6E6"/>
<path d="M57.7596 248.014C57.3467 248.021 56.953 248.19 56.6634 248.484C56.3738 248.778 56.2115 249.175 56.2115 249.588C56.2115 250.001 56.3738 250.397 56.6634 250.691C56.953 250.986 57.3467 251.155 57.7596 251.162H131.965C132.382 251.167 132.784 251.008 133.083 250.717C133.383 250.427 133.554 250.03 133.561 249.614C133.568 249.197 133.409 248.794 133.12 248.495C132.83 248.195 132.434 248.022 132.017 248.014C132 248.014 131.983 248.014 131.965 248.014H57.7596Z" fill="#E6E6E6"/>
<path d="M78.3658 149.314C67.0393 149.319 56.1748 144.824 48.1624 136.82C40.15 128.815 35.6461 117.956 35.6414 106.631V106.596C35.6414 106.506 35.6414 106.412 35.6466 106.323C35.7768 82.9283 54.9417 63.877 78.3658 63.877C89.697 63.8757 100.565 68.3751 108.578 76.3854C116.591 84.3957 121.094 95.2608 121.095 106.59C121.096 117.92 116.596 128.786 108.585 136.798C100.573 144.81 89.7067 149.312 78.3755 149.313H78.3658V149.314ZM78.3658 64.7754C67.3235 64.8001 56.7371 69.1806 48.9067 76.9651C41.0762 84.7495 36.6344 95.3091 36.5464 106.349C36.5416 106.445 36.5416 106.523 36.5416 106.594C36.5406 114.866 38.9928 122.953 43.5884 129.831C48.1839 136.71 54.7162 142.071 62.3593 145.238C70.0024 148.405 78.4129 149.234 86.5274 147.621C94.6419 146.008 102.096 142.026 107.947 136.177C113.797 130.329 117.782 122.877 119.397 114.764C121.012 106.651 120.185 98.2417 117.02 90.5989C113.855 82.9562 108.494 76.4235 101.616 71.8269C94.7374 67.2304 86.6503 64.7764 78.3771 64.7754H78.3658Z" fill="#E6E6E6"/>
<path d="M136.842 200.965C146.435 200.965 154.212 193.189 154.212 183.597C154.212 174.005 146.435 166.229 136.842 166.229C127.248 166.229 119.471 174.005 119.471 183.597C119.471 193.189 127.248 200.965 136.842 200.965Z" fill="white"/>
<path d="M130.809 191.411C130.779 191.411 130.749 191.411 130.72 191.41H121.383C120.198 191.391 119.068 190.908 118.237 190.064C117.406 189.22 116.94 188.083 116.939 186.898C116.939 185.713 117.404 184.576 118.235 183.731C119.065 182.886 120.195 182.402 121.379 182.382H130.724C130.77 182.381 130.819 182.381 130.869 182.382C132.061 182.399 133.198 182.886 134.032 183.737C134.866 184.588 135.33 185.735 135.322 186.926C135.314 188.118 134.835 189.258 133.99 190.098C133.144 190.939 132.001 191.41 130.809 191.411Z" fill="#F3C033"/>
<path d="M282 314.943H141.285V315.916H282V314.943Z" fill="#3F3D56"/>
<path d="M149.955 232.614C149.844 232.442 149.753 232.258 149.681 232.067L147.439 226.063C147.178 225.362 147.206 224.586 147.517 223.905C147.827 223.224 148.395 222.695 149.096 222.432L199.141 203.748C199.843 203.487 200.619 203.514 201.3 203.825C201.981 204.136 202.51 204.703 202.773 205.404L205.015 211.408C205.145 211.755 205.205 212.125 205.192 212.495C205.178 212.865 205.093 213.23 204.939 213.567C204.785 213.904 204.566 214.208 204.295 214.46C204.024 214.713 203.705 214.91 203.358 215.039L153.313 233.723C152.711 233.948 152.049 233.961 151.439 233.759C150.828 233.557 150.305 233.153 149.955 232.614Z" fill="#F3C033"/>
<path d="M198.982 202.196L178.631 210.31C177.99 210.503 177.447 210.935 177.116 211.518C176.785 212.1 176.691 212.787 176.854 213.436L179.215 222.891C179.309 223.265 179.484 223.613 179.728 223.911C179.971 224.208 180.278 224.448 180.626 224.613C180.974 224.778 181.354 224.864 181.739 224.865C182.124 224.866 182.505 224.781 182.853 224.617L203.26 215.013C203.906 214.77 204.43 214.282 204.717 213.654C205.004 213.026 205.03 212.31 204.79 211.662L202.337 203.727C202.095 203.08 201.605 202.555 200.976 202.268C200.347 201.981 199.63 201.955 198.982 202.196Z" fill="#2F2E41"/>
<path d="M236.225 261.1C235.586 261.174 234.941 261.027 234.397 260.684C233.853 260.342 233.442 259.824 233.232 259.216L215.812 208.723C215.691 208.373 215.64 208.002 215.663 207.632C215.685 207.262 215.78 206.9 215.943 206.567C216.105 206.234 216.331 205.936 216.609 205.69C216.886 205.445 217.209 205.256 217.56 205.135L223.619 203.045C224.327 202.801 225.102 202.849 225.775 203.176C226.448 203.504 226.963 204.086 227.208 204.793L244.628 255.286C244.871 255.993 244.824 256.769 244.496 257.441C244.168 258.114 243.587 258.629 242.88 258.874L236.821 260.964C236.628 261.03 236.428 261.076 236.225 261.1Z" fill="#F3C033"/>
<path d="M228.506 203.929L235.192 224.79C235.451 225.407 235.463 226.101 235.224 226.726C234.986 227.352 234.515 227.862 233.911 228.15L225.112 232.343C224.765 232.508 224.385 232.595 224 232.596C223.615 232.598 223.234 232.513 222.886 232.35C222.537 232.187 222.229 231.948 221.984 231.652C221.738 231.355 221.562 231.008 221.466 230.635L215.895 208.782C215.671 208.129 215.714 207.414 216.017 206.793C216.319 206.172 216.854 205.697 217.507 205.47L225.19 202.314C225.844 202.089 226.561 202.133 227.182 202.436C227.804 202.738 228.28 203.275 228.506 203.929Z" fill="#2F2E41"/>
<path d="M208.263 315.229H201.854C201.105 315.228 200.388 314.931 199.859 314.402C199.33 313.873 199.032 313.155 199.031 312.407V258.994C199.032 258.246 199.33 257.529 199.859 257C200.388 256.471 201.105 256.173 201.854 256.172H208.263C209.011 256.173 209.729 256.471 210.258 257C210.787 257.529 211.085 258.246 211.086 258.994V312.407C211.085 313.155 210.787 313.873 210.258 314.402C209.729 314.931 209.011 315.228 208.263 315.229Z" fill="#2F2E41"/>
<path d="M220.94 315.229H214.531C213.782 315.228 213.065 314.931 212.536 314.402C212.006 313.873 211.709 313.155 211.708 312.407V258.994C211.709 258.246 212.006 257.529 212.536 257C213.065 256.471 213.782 256.173 214.531 256.172H220.94C221.689 256.173 222.406 256.471 222.935 257C223.464 257.529 223.762 258.246 223.763 258.994V312.407C223.762 313.155 223.464 313.873 222.935 314.402C222.406 314.931 221.689 315.228 220.94 315.229Z" fill="#2F2E41"/>
<path d="M226.222 265.274H197.1C196.294 265.273 195.521 264.952 194.951 264.383C194.381 263.813 194.061 263.04 194.06 262.234V214.931C194.06 210.263 195.914 205.787 199.215 202.487C202.516 199.186 206.993 197.332 211.661 197.332C216.329 197.332 220.806 199.186 224.107 202.487C227.408 205.787 229.262 210.263 229.262 214.931V262.234C229.261 263.04 228.941 263.813 228.371 264.383C227.801 264.952 227.028 265.273 226.222 265.274Z" fill="#CCCCCC"/>
<path d="M230.606 276.845H215.841V193.412L216.115 193.486C220.274 194.628 223.943 197.101 226.56 200.528C229.178 203.954 230.599 208.144 230.606 212.455V276.845Z" fill="#2F2E41"/>
<path d="M206.281 276.845H191.516V212.455C191.523 208.144 192.945 203.954 195.562 200.528C198.179 197.101 201.848 194.628 206.007 193.486L206.281 193.412V276.845Z" fill="#2F2E41"/>
<path d="M211.441 187.548C224.277 187.548 234.682 177.144 234.682 164.31C234.682 151.476 224.277 141.072 211.441 141.072C198.605 141.072 188.199 151.476 188.199 164.31C188.199 177.144 198.605 187.548 211.441 187.548Z" fill="#F3C033"/>
<path d="M237.717 158.96C237.717 158.96 239.02 122.921 222.083 134.644C222.083 134.644 212.313 101.862 188.428 150.927L181.48 157.874C181.48 157.874 212.747 153.532 241.842 166.992L237.717 158.96Z" fill="#2F2E41"/>
<path d="M211.795 175.818C210.36 175.778 208.573 175.728 207.196 174.723C206.787 174.411 206.45 174.014 206.21 173.558C205.97 173.103 205.832 172.6 205.807 172.086C205.782 171.721 205.842 171.354 205.982 171.016C206.122 170.677 206.339 170.376 206.615 170.135C207.334 169.528 208.383 169.385 209.515 169.718L208.343 161.153L209.203 161.035L210.581 171.104L209.863 170.774C209.029 170.392 207.886 170.198 207.175 170.798C207.001 170.955 206.865 171.15 206.778 171.368C206.691 171.586 206.656 171.822 206.675 172.056C206.696 172.438 206.799 172.812 206.977 173.151C207.156 173.49 207.405 173.787 207.709 174.022C208.78 174.804 210.204 174.905 211.819 174.95L211.795 175.818Z" fill="#2F2E41"/>
<path d="M204.087 161.892H199.409V162.76H204.087V161.892Z" fill="#2F2E41"/>
<path d="M218.852 161.892H214.174V162.76H218.852V161.892Z" fill="#2F2E41"/>
<path d="M159.622 234.829C158.995 235.12 158.278 235.149 157.63 234.912C156.981 234.674 156.453 234.189 156.162 233.562L141.175 201.265C140.884 200.638 140.855 199.921 141.092 199.273C141.33 198.624 141.815 198.096 142.442 197.805C143.069 197.514 143.786 197.485 144.435 197.722C145.083 197.96 145.611 198.445 145.902 199.072L160.889 231.369C161.18 231.996 161.21 232.712 160.972 233.361C160.735 234.01 160.249 234.538 159.622 234.829Z" fill="#3F3D56"/>
<path d="M144.224 200.076C143.764 200.076 143.322 199.893 142.996 199.567C142.67 199.242 142.487 198.8 142.487 198.339V176.216H120.774C120.314 176.216 119.872 176.033 119.546 175.707C119.22 175.381 119.037 174.94 119.037 174.479C119.037 174.018 119.22 173.577 119.546 173.251C119.872 172.925 120.314 172.742 120.774 172.742H144.224C144.685 172.742 145.127 172.925 145.453 173.251C145.778 173.577 145.961 174.018 145.961 174.479V198.339C145.961 198.8 145.778 199.242 145.453 199.567C145.127 199.893 144.685 200.076 144.224 200.076Z" fill="#F3C033"/>
<path d="M144.635 202.531C140.895 204.266 136.725 204.853 132.652 204.218C128.578 203.583 124.785 201.755 121.75 198.964C118.716 196.174 116.578 192.546 115.606 188.54C114.634 184.534 114.871 180.33 116.289 176.459C117.706 172.589 120.24 169.225 123.569 166.794C126.899 164.363 130.874 162.974 134.993 162.802C139.113 162.63 143.19 163.684 146.71 165.829C150.231 167.974 153.036 171.115 154.771 174.854C157.091 179.869 157.327 185.599 155.427 190.788C153.527 195.977 149.646 200.2 144.635 202.531ZM129.283 169.446C126.478 170.747 124.122 172.851 122.513 175.491C120.904 178.131 120.114 181.188 120.243 184.277C120.372 187.366 121.414 190.347 123.237 192.844C125.061 195.341 127.584 197.241 130.487 198.304C133.391 199.367 136.544 199.545 139.549 198.816C142.554 198.087 145.275 196.483 147.368 194.208C149.462 191.933 150.833 189.088 151.309 186.033C151.786 182.979 151.345 179.851 150.044 177.047C148.295 173.29 145.127 170.379 141.235 168.954C137.343 167.529 133.045 167.706 129.283 169.446Z" fill="#3F3D56"/>
</g>
<defs>
<clipPath id="clip0_4_785">
<rect width="282" height="316" fill="white"/>
</clipPath>
</defs>
</svg>
