<svg width="391" height="170" viewBox="0 0 391 170" fill="none" xmlns="http://www.w3.org/2000/svg">
<g clip-path="url(#clip0_15_45)">
<path d="M352.694 70.13H123.292C122.318 70.13 121.384 70.5178 120.695 71.2081C120.006 71.8985 119.619 72.8347 119.619 73.811C119.619 74.7872 120.006 75.7235 120.695 76.4138C121.384 77.1041 122.318 77.4919 123.292 77.4919H129.79V165.552C129.79 166.528 130.177 167.465 130.865 168.155C131.554 168.845 132.488 169.233 133.462 169.233C134.436 169.233 135.371 168.845 136.059 168.155C136.748 167.465 137.135 166.528 137.135 165.552L137.191 77.4919H321.309L338.285 165.552C338.285 166.528 338.672 167.465 339.361 168.155C340.05 168.845 340.984 169.233 341.958 169.233C342.932 169.233 343.866 168.845 344.555 168.155C345.244 167.465 345.631 166.528 345.631 165.552L346.699 77.4919H352.694C353.668 77.4919 354.602 77.1041 355.291 76.4138C355.979 75.7235 356.366 74.7872 356.366 73.811C356.366 72.8347 355.979 71.8985 355.291 71.2081C354.602 70.5178 353.668 70.13 352.694 70.13Z" fill="#CCCCCC"/>
<path d="M163.055 53.7282V69.3161H124.09C123.069 69.3517 122.05 69.1853 121.093 68.8265C120.136 68.4678 119.259 67.9236 118.512 67.225C117.765 66.5264 117.162 65.6872 116.738 64.7552C116.315 63.8233 116.078 62.8168 116.043 61.7933C116.007 60.7697 116.173 59.7492 116.531 58.79C116.889 57.8308 117.432 56.9516 118.129 56.2027C118.826 55.4538 119.663 54.8498 120.593 54.4252C121.523 54.0006 122.527 53.7638 123.549 53.7282C123.729 53.7219 123.909 53.7219 124.09 53.7282L163.055 53.7282Z" fill="#F2F2F2"/>
<path d="M164.013 69.1961C164.012 69.3551 163.949 69.5076 163.837 69.62C163.725 69.7324 163.573 69.7956 163.414 69.7956H123.396C121.223 69.7941 119.14 68.9281 117.605 67.3879C116.069 65.8477 115.206 63.7594 115.206 61.582C115.206 59.4046 116.069 57.3163 117.605 55.7761C119.14 54.236 121.223 53.3699 123.396 53.3684H163.414C163.493 53.3682 163.571 53.3836 163.644 53.4136C163.716 53.4436 163.783 53.4878 163.838 53.5435C163.894 53.5992 163.938 53.6653 163.968 53.7382C163.999 53.811 164.014 53.8891 164.014 53.9679C164.014 54.0468 163.999 54.1249 163.968 54.1977C163.938 54.2706 163.894 54.3367 163.838 54.3924C163.783 54.4481 163.716 54.4923 163.644 54.5223C163.571 54.5523 163.493 54.5677 163.414 54.5675H123.396C121.541 54.5703 119.764 55.3106 118.454 56.6257C117.143 57.9409 116.408 59.7235 116.408 61.582C116.408 63.4406 117.143 65.2231 118.454 66.5383C119.764 67.8535 121.541 68.5938 123.396 68.5966H163.414C163.573 68.5966 163.725 68.6598 163.837 68.7723C163.949 68.8847 164.012 69.0371 164.013 69.1961Z" fill="#F0B000"/>
<path d="M163.056 57.3254H121.183C121.151 57.3255 121.12 57.3131 121.098 57.2909C121.075 57.2686 121.063 57.2383 121.062 57.2066C121.062 57.1748 121.074 57.1443 121.096 57.1216C121.118 57.099 121.149 57.086 121.18 57.0856H163.056C163.087 57.0859 163.117 57.0987 163.139 57.1211C163.162 57.1436 163.174 57.1739 163.174 57.2055C163.174 57.2371 163.162 57.2674 163.139 57.2898C163.117 57.3123 163.087 57.3251 163.056 57.3254Z" fill="#CCCCCC"/>
<path d="M163.056 60.2032H121.183C121.151 60.2033 121.12 60.1909 121.098 60.1687C121.075 60.1464 121.063 60.1161 121.062 60.0844C121.062 60.0526 121.074 60.0221 121.096 59.9994C121.118 59.9767 121.149 59.9638 121.18 59.9633H163.056C163.087 59.9637 163.117 59.9764 163.139 59.9989C163.162 60.0213 163.174 60.0517 163.174 60.0833C163.174 60.1148 163.162 60.1452 163.139 60.1676C163.117 60.1901 163.087 60.2028 163.056 60.2032Z" fill="#CCCCCC"/>
<path d="M163.056 63.0809H121.183C121.151 63.0811 121.12 63.0687 121.098 63.0464C121.075 63.0241 121.063 62.9938 121.062 62.9621C121.062 62.9304 121.074 62.8998 121.096 62.8772C121.118 62.8545 121.149 62.8415 121.18 62.8411H163.056C163.087 62.8414 163.117 62.8542 163.139 62.8766C163.162 62.8991 163.174 62.9294 163.174 62.961C163.174 62.9926 163.162 63.0229 163.139 63.0454C163.117 63.0678 163.087 63.0806 163.056 63.0809Z" fill="#CCCCCC"/>
<path d="M163.056 65.9586H121.183C121.151 65.9588 121.12 65.9464 121.098 65.9241C121.075 65.9018 121.063 65.8715 121.062 65.8398C121.062 65.8081 121.074 65.7776 121.096 65.7549C121.118 65.7322 121.149 65.7192 121.18 65.7188H163.056C163.087 65.7191 163.117 65.7319 163.139 65.7543C163.162 65.7768 163.174 65.8071 163.174 65.8387C163.174 65.8703 163.162 65.9006 163.139 65.9231C163.117 65.9455 163.087 65.9583 163.056 65.9586Z" fill="#CCCCCC"/>
<path d="M155.71 37.3054V52.8933H116.745C114.682 52.9652 112.676 52.213 111.167 50.8022C109.657 49.3914 108.769 47.4375 108.698 45.3705C108.626 43.3034 109.376 41.2924 110.784 39.7799C112.192 38.2674 114.141 37.3773 116.203 37.3054C116.384 37.2991 116.564 37.2991 116.745 37.3054H155.71Z" fill="#F2F2F2"/>
<path d="M156.667 52.7734C156.667 52.9324 156.604 53.0848 156.492 53.1972C156.38 53.3096 156.228 53.3728 156.069 53.3729H116.05C113.877 53.3729 111.792 52.5075 110.256 50.9672C108.719 49.4268 107.855 47.3377 107.855 45.1593C107.855 42.9809 108.719 40.8917 110.256 39.3514C111.792 37.811 113.877 36.9457 116.05 36.9457H156.069C156.148 36.9457 156.225 36.9612 156.298 36.9913C156.37 37.0214 156.436 37.0656 156.492 37.1213C156.548 37.1769 156.592 37.243 156.622 37.3158C156.652 37.3885 156.667 37.4665 156.667 37.5452C156.667 37.6239 156.652 37.7019 156.622 37.7746C156.592 37.8474 156.548 37.9135 156.492 37.9691C156.436 38.0248 156.37 38.069 156.298 38.0991C156.225 38.1292 156.148 38.1447 156.069 38.1447H116.05C114.194 38.1447 112.414 38.8838 111.101 40.1993C109.789 41.5147 109.052 43.2989 109.052 45.1593C109.052 47.0197 109.789 48.8039 111.101 50.1193C112.414 51.4348 114.194 52.1738 116.05 52.1738H156.069C156.228 52.1739 156.38 52.2371 156.492 52.3495C156.604 52.4619 156.667 52.6144 156.667 52.7734Z" fill="#3F3D56"/>
<path d="M155.71 40.9026H113.837C113.805 40.9028 113.775 40.8904 113.752 40.8681C113.73 40.8458 113.717 40.8155 113.717 40.7838C113.717 40.7521 113.729 40.7215 113.751 40.6988C113.773 40.6762 113.803 40.6632 113.835 40.6628H155.71C155.742 40.6631 155.772 40.6759 155.794 40.6983C155.816 40.7208 155.829 40.7511 155.829 40.7827C155.829 40.8143 155.816 40.8446 155.794 40.867C155.772 40.8895 155.742 40.9023 155.71 40.9026Z" fill="#CCCCCC"/>
<path d="M155.71 43.7804H113.837C113.805 43.7805 113.775 43.7681 113.752 43.7459C113.73 43.7236 113.717 43.6933 113.717 43.6616C113.717 43.6299 113.729 43.5993 113.751 43.5766C113.773 43.554 113.803 43.541 113.835 43.5406H155.71C155.742 43.5409 155.772 43.5537 155.794 43.5761C155.816 43.5986 155.829 43.6289 155.829 43.6605C155.829 43.6921 155.816 43.7224 155.794 43.7448C155.772 43.7673 155.742 43.7801 155.71 43.7804Z" fill="#CCCCCC"/>
<path d="M155.71 46.6581H113.837C113.805 46.6583 113.775 46.6459 113.752 46.6236C113.73 46.6014 113.717 46.5711 113.717 46.5393C113.717 46.5076 113.729 46.4771 113.751 46.4544C113.773 46.4317 113.803 46.4188 113.835 46.4183H155.71C155.742 46.4187 155.772 46.4314 155.794 46.4539C155.816 46.4763 155.829 46.5066 155.829 46.5382C155.829 46.5698 155.816 46.6001 155.794 46.6226C155.772 46.6451 155.742 46.6578 155.71 46.6581Z" fill="#CCCCCC"/>
<path d="M155.71 49.5359H113.837C113.805 49.536 113.775 49.5236 113.752 49.5014C113.73 49.4791 113.717 49.4488 113.717 49.4171C113.717 49.3853 113.729 49.3548 113.751 49.3321C113.773 49.3094 113.803 49.2965 113.835 49.2961H155.71C155.742 49.2964 155.772 49.3091 155.794 49.3316C155.816 49.354 155.829 49.3844 155.829 49.416C155.829 49.4476 155.816 49.4779 155.794 49.5003C155.772 49.5228 155.742 49.5355 155.71 49.5359Z" fill="#CCCCCC"/>
<path d="M201.039 125.289V111.698C201.039 111.097 200.801 110.521 200.377 110.096C199.953 109.671 199.378 109.432 198.779 109.432H147.361C146.762 109.432 146.187 109.671 145.763 110.096C145.339 110.521 145.101 111.097 145.101 111.698V125.289H201.039Z" fill="#CCCCCC"/>
<path d="M201.039 130.386H145.101V147.941H201.039V130.386Z" fill="#CCCCCC"/>
<path d="M145.101 153.038V166.629C145.101 167.23 145.339 167.806 145.763 168.231C146.187 168.656 146.762 168.894 147.361 168.894H198.779C199.378 168.894 199.953 168.656 200.377 168.231C200.801 167.806 201.039 167.23 201.039 166.629V153.038H145.101Z" fill="#CCCCCC"/>
<path d="M172.788 119.626C173.724 119.626 174.483 118.865 174.483 117.927C174.483 116.989 173.724 116.228 172.788 116.228C171.851 116.228 171.093 116.989 171.093 117.927C171.093 118.865 171.851 119.626 172.788 119.626Z" fill="white"/>
<path d="M172.788 142.278C173.724 142.278 174.483 141.517 174.483 140.579C174.483 139.641 173.724 138.88 172.788 138.88C171.851 138.88 171.093 139.641 171.093 140.579C171.093 141.517 171.851 142.278 172.788 142.278Z" fill="white"/>
<path d="M172.878 164.45C173.815 164.45 174.574 163.69 174.574 162.751C174.574 161.813 173.815 161.053 172.878 161.053C171.942 161.053 171.183 161.813 171.183 162.751C171.183 163.69 171.942 164.45 172.878 164.45Z" fill="white"/>
<path d="M194.697 93.9357V109.524H155.731C153.67 109.594 151.665 108.841 150.157 107.431C148.649 106.02 147.762 104.067 147.69 102.001C147.618 99.9347 148.368 97.9245 149.774 96.4122C151.18 94.8998 153.128 94.0091 155.19 93.9357C155.37 93.9294 155.551 93.9294 155.731 93.9357H194.697Z" fill="#F2F2F2"/>
<path d="M195.654 109.404C195.654 109.563 195.591 109.715 195.479 109.827C195.367 109.94 195.215 110.003 195.056 110.003H155.038C152.865 110.004 150.78 109.139 149.243 107.6C147.706 106.061 146.842 103.972 146.84 101.794C146.839 99.6166 147.701 97.5273 149.236 95.9861C150.771 94.4449 152.855 93.578 155.028 93.5759H195.056C195.135 93.5757 195.213 93.591 195.286 93.6211C195.358 93.6511 195.424 93.6952 195.48 93.7509C195.536 93.8066 195.58 93.8728 195.61 93.9456C195.64 94.0185 195.656 94.0966 195.656 94.1754C195.656 94.2543 195.64 94.3324 195.61 94.4052C195.58 94.4781 195.536 94.5442 195.48 94.5999C195.424 94.6556 195.358 94.6997 195.286 94.7298C195.213 94.7598 195.135 94.7752 195.056 94.775H155.038C153.183 94.7774 151.405 95.5175 150.095 96.8327C148.784 98.1479 148.048 99.9307 148.048 101.79C148.048 103.648 148.784 105.431 150.095 106.746C151.405 108.062 153.183 108.802 155.038 108.804H195.056C195.215 108.804 195.367 108.867 195.479 108.98C195.591 109.092 195.654 109.245 195.654 109.404Z" fill="#3F3D56"/>
<path d="M194.697 97.5328H152.824C152.792 97.533 152.762 97.5206 152.74 97.4983C152.717 97.476 152.704 97.4457 152.704 97.414C152.704 97.3823 152.716 97.3517 152.738 97.3291C152.76 97.3064 152.79 97.2934 152.822 97.293H194.697C194.729 97.2933 194.759 97.3061 194.781 97.3285C194.803 97.351 194.816 97.3813 194.816 97.4129C194.816 97.4445 194.803 97.4748 194.781 97.4973C194.759 97.5197 194.729 97.5325 194.697 97.5328Z" fill="#CCCCCC"/>
<path d="M194.697 100.411H152.824C152.792 100.411 152.762 100.398 152.74 100.376C152.717 100.354 152.704 100.324 152.704 100.292C152.704 100.26 152.716 100.23 152.738 100.207C152.76 100.184 152.79 100.171 152.822 100.171H194.697C194.729 100.171 194.759 100.184 194.781 100.206C194.803 100.229 194.816 100.259 194.816 100.291C194.816 100.322 194.803 100.353 194.781 100.375C194.759 100.398 194.729 100.41 194.697 100.411Z" fill="#CCCCCC"/>
<path d="M194.697 103.288H152.824C152.792 103.289 152.762 103.276 152.74 103.254C152.717 103.232 152.704 103.201 152.704 103.17C152.704 103.138 152.716 103.107 152.738 103.085C152.76 103.062 152.79 103.049 152.822 103.049H194.697C194.729 103.049 194.759 103.062 194.781 103.084C194.803 103.107 194.816 103.137 194.816 103.168C194.816 103.2 194.803 103.23 194.781 103.253C194.759 103.275 194.729 103.288 194.697 103.288Z" fill="#CCCCCC"/>
<path d="M194.697 106.166H152.824C152.792 106.166 152.762 106.154 152.74 106.132C152.717 106.109 152.704 106.079 152.704 106.047C152.704 106.016 152.716 105.985 152.738 105.962C152.76 105.94 152.79 105.927 152.822 105.926H194.697C194.729 105.927 194.759 105.939 194.781 105.962C194.803 105.984 194.816 106.015 194.816 106.046C194.816 106.078 194.803 106.108 194.781 106.131C194.759 106.153 194.729 106.166 194.697 106.166Z" fill="#CCCCCC"/>
<path d="M148.934 32.1053H131.181C131.012 32.1052 130.846 32.1439 130.695 32.2186L126.214 34.4668C126.067 34.5296 125.941 34.6345 125.853 34.7684C125.764 34.9024 125.717 35.0594 125.717 35.22C125.717 35.3805 125.764 35.5376 125.853 35.6715C125.941 35.8054 126.067 35.9103 126.214 35.9731L130.695 38.2213C130.846 38.296 131.012 38.3348 131.181 38.3346H148.934C149.179 38.3488 149.419 38.2658 149.603 38.1036C149.787 37.9415 149.9 37.7132 149.917 37.4682V32.9717C149.9 32.7267 149.787 32.4984 149.603 32.3363C149.419 32.1741 149.179 32.0911 148.934 32.1053Z" fill="#3F3D56"/>
<path d="M149.917 32.9718V37.4682C149.9 37.7132 149.787 37.9415 149.603 38.1037C149.419 38.2659 149.179 38.3488 148.934 38.3347H145.397V32.1053H148.934C149.179 32.0911 149.419 32.1741 149.603 32.3363C149.787 32.4985 149.9 32.7268 149.917 32.9718Z" fill="#F0B000"/>
<path d="M42.4983 120.211C44.7843 121.016 47.2387 121.218 49.6251 120.797C52.0114 120.375 54.2493 119.345 56.1231 117.805C60.8952 113.791 62.3914 107.177 63.6088 101.053C64.8091 95.0156 66.0094 88.9778 67.2097 82.9399L59.6709 88.1426C54.2495 91.884 48.7059 95.7452 44.9521 101.164C41.1984 106.584 39.5598 113.982 42.5759 119.845" fill="#E6E6E6"/>
<path d="M43.1427 142.141C42.3796 136.571 41.5951 130.929 42.1303 125.298C42.6056 120.298 44.1276 115.414 47.2263 111.41C48.8711 109.289 50.8725 107.471 53.1405 106.039C53.7319 105.665 54.2763 106.604 53.6874 106.977C49.7631 109.462 46.7278 113.133 45.0191 117.459C43.1319 122.27 42.8289 127.514 43.1541 132.625C43.3507 135.716 43.7675 138.786 44.1876 141.852C44.2207 141.991 44.2 142.137 44.1298 142.261C44.0595 142.385 43.9449 142.478 43.8092 142.52C43.6706 142.558 43.523 142.539 43.3982 142.468C43.2734 142.397 43.1816 142.279 43.1427 142.141Z" fill="#F2F2F2"/>
<path d="M50.4919 132.284C51.4724 133.777 52.82 134.993 54.405 135.812C55.9901 136.632 57.7591 137.029 59.5416 136.965C64.1227 136.747 67.9419 133.543 71.3799 130.5L81.5488 121.502L74.8187 121.179C69.9788 120.947 65.014 120.73 60.4042 122.226C55.7944 123.722 51.5429 127.322 50.7 132.104" fill="#E6E6E6"/>
<path d="M40.9864 145.343C44.6589 138.83 48.9188 131.592 56.5304 129.278C58.6468 128.637 60.866 128.407 63.0684 128.602C63.7626 128.662 63.5892 129.734 62.8963 129.674C59.2045 129.367 55.5199 130.344 52.4626 132.441C49.5207 134.448 47.2301 137.238 45.2914 140.197C44.1039 142.009 43.0401 143.899 41.9762 145.785C41.6362 146.388 40.6424 145.953 40.9864 145.343Z" fill="#F2F2F2"/>
<path d="M35.1018 152.199C35.2255 150.761 35.7403 149.386 36.5901 148.222C37.4398 147.058 38.592 146.15 39.9211 145.597V141.831H46.2221V145.715C47.4858 146.296 48.5734 147.201 49.3739 148.34C50.1744 149.479 50.6593 150.811 50.7791 152.199L52.2607 169.46H33.6201L35.1018 152.199Z" fill="#F2F2F2"/>
<path d="M249.389 69.7761L247.514 68.9851L246.228 59.5673H229.105L227.711 68.9466L226.034 69.787C225.954 69.8272 225.889 69.8934 225.851 69.9748C225.813 70.0563 225.804 70.1482 225.824 70.2357C225.845 70.3232 225.894 70.4011 225.965 70.4569C226.035 70.5127 226.122 70.5431 226.212 70.5431H249.234C249.326 70.5431 249.415 70.5112 249.486 70.4529C249.557 70.3945 249.606 70.3133 249.624 70.223C249.643 70.1326 249.629 70.0388 249.586 69.9574C249.543 69.8759 249.473 69.8119 249.389 69.7761Z" fill="#E6E6E6"/>
<path d="M279.818 60.8203H195.702C195.261 60.8193 194.838 60.6429 194.526 60.3298C194.215 60.0166 194.04 59.5924 194.04 59.15V47.2618H281.481V59.15C281.481 59.5924 281.306 60.0166 280.994 60.3298C280.683 60.6429 280.26 60.8193 279.818 60.8203Z" fill="#CCCCCC"/>
<path d="M281.569 52.8805H193.963V2.01344C193.964 1.47962 194.175 0.967844 194.552 0.590382C194.929 0.21292 195.439 0.000597312 195.972 0H279.56C280.093 0.000597302 280.603 0.212921 280.98 0.590382C281.357 0.967843 281.568 1.47962 281.569 2.01344L281.569 52.8805Z" fill="#3F3D56"/>
<path d="M276.337 49.1886H199.195C198.785 49.1881 198.391 49.0244 198.101 48.7334C197.81 48.4424 197.647 48.0479 197.646 47.6363V5.24416C197.647 4.83261 197.81 4.43804 198.101 4.14702C198.391 3.856 198.785 3.69231 199.195 3.69183H276.337C276.747 3.69231 277.141 3.856 277.431 4.14702C277.722 4.43804 277.885 4.8326 277.885 5.24416V47.6363C277.885 48.0479 277.722 48.4424 277.431 48.7334C277.141 49.0244 276.747 49.1881 276.337 49.1886Z" fill="white"/>
<path d="M256.019 64.1466C256.517 63.6856 257.11 63.3396 257.756 63.133C258.402 62.9264 259.085 62.8643 259.757 62.9509C260.43 63.0376 261.075 63.2711 261.648 63.6348C262.22 63.9984 262.707 64.4836 263.072 65.056L273.506 63.1967L276.18 69.2763L261.408 71.6945C260.408 72.246 259.241 72.4107 258.128 72.1573C257.015 71.904 256.033 71.2501 255.369 70.3198C254.704 69.3894 254.403 68.2471 254.523 67.1094C254.643 65.9716 255.175 64.9175 256.019 64.1466Z" fill="#FFB6B6"/>
<path d="M265.679 71.9094L276.557 71.7735L277.934 71.7548L300.066 71.4753C300.066 71.4753 306.076 65.7287 311.309 59.8122L310.576 54.4948C309.86 49.2764 307.277 44.4962 303.308 41.0439C295.812 46.0634 291.466 55.9991 291.466 55.9991L277.743 59.2886L276.37 59.6177L267.844 61.6598L265.679 71.9094Z" fill="#F0B000"/>
<path d="M321.365 104.592H301.06C301.06 105.464 278.864 106.172 278.864 106.172C278.374 106.541 277.928 106.965 277.533 107.436C276.349 108.852 275.701 110.642 275.705 112.491V113.754C275.706 115.849 276.536 117.858 278.014 119.339C279.492 120.82 281.496 121.652 283.586 121.653H321.365C323.454 121.651 325.458 120.818 326.935 119.337C328.413 117.857 329.244 115.849 329.246 113.754V112.491C329.243 110.397 328.411 108.389 326.934 106.909C325.457 105.428 323.454 104.595 321.365 104.592Z" fill="#E4E4E4"/>
<path d="M306.599 121.339H298.403V168.753H306.599V121.339Z" fill="#E4E4E4"/>
<path d="M275.076 168.465C275.076 169.352 287.496 168.808 302.816 168.808C318.137 168.808 330.556 169.352 330.556 168.465C330.556 167.577 318.137 160.539 302.816 160.539C287.496 160.539 275.076 167.577 275.076 168.465Z" fill="#E4E4E4"/>
<path d="M269.571 163.047L263.471 163.047L260.569 139.466L269.571 139.466L269.571 163.047Z" fill="#FFB6B6"/>
<path d="M271.126 168.973L251.458 168.972V168.723C251.458 166.688 252.265 164.737 253.7 163.298C255.136 161.859 257.083 161.051 259.113 161.05H259.114L271.127 161.051L271.126 168.973Z" fill="#2F2E41"/>
<path d="M251.542 163.047L245.443 163.047L242.541 139.466L251.543 139.466L251.542 163.047Z" fill="#FFB6B6"/>
<path d="M253.098 168.973L233.43 168.972V168.723C233.43 166.688 234.236 164.737 235.672 163.298C237.108 161.859 239.055 161.051 241.085 161.05H241.086L253.098 161.051L253.098 168.973Z" fill="#2F2E41"/>
<path d="M306.182 27.2906C312.04 27.2906 316.788 22.5315 316.788 16.6609C316.788 10.7903 312.04 6.03119 306.182 6.03119C300.325 6.03119 295.577 10.7903 295.577 16.6609C295.577 22.5315 300.325 27.2906 306.182 27.2906Z" fill="#FFB6B6"/>
<path d="M323.348 89.4914C323.348 89.4914 326.906 108.351 313.367 110.753C299.827 113.154 280.282 114.842 280.282 114.842L271.505 155.885L259.713 154.829C259.713 154.829 261.281 105.423 265.138 101.558C268.995 97.6928 293.37 86.1191 293.37 86.1191L323.348 89.4914Z" fill="#2F2E41"/>
<path d="M296.904 81.5872L290.982 87.5412C290.982 87.5412 248.224 94.4439 246.575 104.342C244.084 119.285 241.143 151.781 241.143 151.781L253.998 150.814L259.039 113.876L279.608 109.186L303.01 96.4044L296.904 81.5872Z" fill="#2F2E41"/>
<path d="M316.388 10.3157C315.341 8.33597 314.011 4.39032 311.898 3.65855C310.724 3.26856 309.511 3.0096 308.281 2.88637L304.689 4.27093L306.644 2.74715C306.264 2.72442 305.883 2.70584 305.503 2.69141L303.08 3.62558L304.319 2.65909C302.06 2.63585 299.728 2.87129 297.977 4.24978C296.485 5.42494 295.006 9.87668 294.767 11.7637C294.512 13.5689 294.601 15.4063 295.031 17.178L295.645 17.7629C295.859 17.2695 296.021 16.7545 296.126 16.2267C296.346 15.2406 296.769 14.3112 297.367 13.4978C297.965 12.6844 298.726 12.0048 299.601 11.5024L299.634 11.4835C300.663 10.9029 301.912 10.9296 303.093 10.9722L308.699 11.1744C310.048 11.223 311.5 11.3086 312.552 12.1565C313.22 12.7821 313.745 13.545 314.092 14.3931C314.615 15.4501 315.636 19.4367 315.636 19.4367C315.636 19.4367 316.213 18.6842 316.49 19.2443C316.934 17.783 317.204 16.2741 317.294 14.7492C317.383 13.2175 317.07 11.6892 316.388 10.3157Z" fill="#2F2E41"/>
<path d="M353.482 21.3289C352.806 21.3736 352.147 21.5663 351.553 21.8937C350.959 22.221 350.444 22.6749 350.044 23.2234C349.643 23.772 349.368 24.4018 349.237 25.0685C349.106 25.7352 349.122 26.4226 349.285 27.0823L340.756 33.3876L343.315 39.5166L355.235 30.4428C356.322 30.0954 357.245 29.3603 357.828 28.3766C358.411 27.393 358.614 26.2292 358.398 25.1058C358.182 23.9824 357.562 22.9774 356.656 22.2813C355.75 21.5852 354.621 21.2463 353.482 21.3289Z" fill="#FFB6B6"/>
<path d="M352.11 34.2013L330.729 58.0002C330.729 58.0002 320.505 54.7197 312.597 51.1631L309.045 40.2277C308.22 37.6908 307.868 35.0235 308.006 32.3589C318.968 29.4354 331.718 40.3134 331.718 40.3134L347.723 27.7491L352.11 34.2013Z" fill="#F0B000"/>
<path d="M302.221 91.2491C298.406 89.9285 294.462 88.563 290.208 88.0504L290.025 88.0282L290.075 87.851C294.479 72.3527 293.38 62.4386 291.222 47.5463C290.763 44.334 291.353 41.0591 292.903 38.2103C294.454 35.3616 296.882 33.0918 299.825 31.7397L299.851 31.7279L312.002 30.954L312.03 30.9523L320.867 33.5573C322.139 33.9348 323.251 34.7196 324.035 35.7915C324.819 36.8635 325.23 38.1633 325.206 39.492C325.11 44.3896 325.313 49.8577 325.528 55.6466C326.011 68.6339 326.509 82.0634 323.68 90.7768L323.665 90.8225L323.627 90.8522C321.026 92.9756 317.767 94.1229 314.412 94.0964C310.445 94.0964 306.397 92.6951 302.221 91.2491Z" fill="#F0B000"/>
<path d="M390.435 170H0.56503C0.415175 170 0.271459 169.94 0.165496 169.834C0.0595325 169.728 0 169.584 0 169.434C0 169.284 0.0595325 169.139 0.165496 169.033C0.271459 168.927 0.415175 168.867 0.56503 168.867H390.435C390.585 168.867 390.729 168.927 390.835 169.033C390.94 169.139 391 169.284 391 169.434C391 169.584 390.94 169.728 390.835 169.834C390.729 169.94 390.585 170 390.435 170Z" fill="#CCCCCC"/>
</g>
<defs>
<clipPath id="clip0_15_45">
<rect width="391" height="170" fill="white"/>
</clipPath>
</defs>
</svg>
