<svg width="237" height="213" viewBox="0 0 237 213" fill="none" xmlns="http://www.w3.org/2000/svg">
<g clip-path="url(#clip0_15_236)">
<path d="M234.921 81.4555C234.836 81.4556 234.753 81.4295 234.683 81.3809L119.693 1.20392C119.343 0.961059 118.927 0.831272 118.502 0.831999C118.076 0.832726 117.66 0.963931 117.311 1.20798L3.14931 81.3801C3.05901 81.4435 2.94725 81.4684 2.83862 81.4493C2.72998 81.4302 2.63337 81.3687 2.57003 81.2783C2.5067 81.1879 2.48182 81.076 2.50089 80.9673C2.51996 80.8585 2.5814 80.7618 2.6717 80.6984L116.834 0.526242C117.323 0.184622 117.904 0.000984761 118.5 3.94949e-06C119.096 -0.000976862 119.678 0.180744 120.168 0.520754L235.159 80.6975C235.231 80.7482 235.286 80.8208 235.314 80.9047C235.343 80.9886 235.344 81.0794 235.318 81.164C235.291 81.2485 235.238 81.3224 235.167 81.3748C235.096 81.4273 235.009 81.4555 234.921 81.4555Z" fill="#3F3D56"/>
<path d="M9.67285 84.2975L118.615 3.46301L228.383 90.0493L124.228 151.867L67.6805 138.962L9.67285 84.2975Z" fill="#E6E6E6"/>
<path d="M72.4536 190.049H18.6336C18.3032 190.049 17.9758 189.985 17.6704 189.858C17.365 189.732 17.0874 189.547 16.8536 189.313C16.6197 189.079 16.4342 188.801 16.3077 188.496C16.1811 188.19 16.116 187.862 16.116 187.532C16.116 187.201 16.1811 186.873 16.3077 186.567C16.4342 186.262 16.6197 185.984 16.8536 185.75C17.0874 185.517 17.365 185.331 17.6704 185.205C17.9758 185.079 18.3032 185.014 18.6336 185.014H72.4536C72.784 185.014 73.1113 185.079 73.4168 185.205C73.7222 185.331 73.9998 185.517 74.2336 185.75C74.4674 185.984 74.653 186.262 74.7795 186.567C74.9061 186.873 74.9712 187.201 74.9712 187.532C74.9712 187.862 74.9061 188.19 74.7795 188.496C74.653 188.801 74.4674 189.079 74.2336 189.313C73.9998 189.547 73.7222 189.732 73.4168 189.858C73.1113 189.985 72.784 190.049 72.4536 190.049Z" fill="#F0B000"/>
<path d="M37.943 179.226H18.6336C18.3032 179.226 17.9758 179.161 17.6704 179.035C17.365 178.909 17.0874 178.723 16.8536 178.489C16.6197 178.256 16.4342 177.978 16.3077 177.672C16.1811 177.367 16.116 177.039 16.116 176.708C16.116 176.377 16.1811 176.05 16.3077 175.744C16.4342 175.438 16.6197 175.161 16.8536 174.927C17.0874 174.693 17.365 174.508 17.6704 174.382C17.9758 174.255 18.3032 174.19 18.6336 174.191H37.943C38.2735 174.19 38.6008 174.255 38.9062 174.382C39.2117 174.508 39.4893 174.693 39.7231 174.927C39.9569 175.161 40.1424 175.438 40.269 175.744C40.3955 176.05 40.4607 176.377 40.4607 176.708C40.4607 177.039 40.3955 177.367 40.269 177.672C40.1424 177.978 39.9569 178.256 39.7231 178.489C39.4893 178.723 39.2117 178.909 38.9062 179.035C38.6008 179.161 38.2735 179.226 37.943 179.226Z" fill="#F0B000"/>
<path d="M120.147 129.321C119.738 129.322 119.332 129.242 118.954 129.087L51.7659 101.176V13.81C51.7668 13.0374 52.0737 12.2967 52.6193 11.7505C53.165 11.2042 53.9048 10.8969 54.6764 10.896H183.571C184.343 10.8969 185.083 11.2042 185.628 11.7505C186.174 12.2967 186.481 13.0374 186.482 13.81V101.237L186.355 101.291L121.376 129.074C120.987 129.237 120.569 129.322 120.147 129.321Z" fill="white"/>
<path d="M120.147 129.529C119.711 129.53 119.278 129.445 118.875 129.28L51.5581 101.315V13.8099C51.559 12.9822 51.8879 12.1886 52.4725 11.6033C53.0571 11.018 53.8498 10.6887 54.6765 10.6878H183.571C184.398 10.6887 185.191 11.018 185.775 11.6033C186.36 12.1886 186.689 12.9822 186.69 13.8099V101.375L121.457 129.265C121.043 129.44 120.597 129.53 120.147 129.529ZM52.3897 100.759L119.192 128.51C119.815 128.763 120.513 128.759 121.133 128.499L185.858 100.825V13.8099C185.857 13.2029 185.616 12.621 185.188 12.1918C184.759 11.7625 184.178 11.5211 183.571 11.5204H54.6765C54.0703 11.5211 53.489 11.7625 53.0603 12.1918C52.6316 12.621 52.3904 13.2029 52.3897 13.8099L52.3897 100.759Z" fill="#3F3D56"/>
<path d="M234.089 80.6229H234.006L186.274 101.029L120.966 128.949C120.711 129.056 120.437 129.112 120.16 129.114C119.883 129.115 119.609 129.062 119.352 128.957L51.9737 100.971L3.06848 80.6562L2.99377 80.6229H2.91053C2.13887 80.6238 1.39906 80.9311 0.853417 81.4773C0.307772 82.0236 0.000856215 82.7643 0 83.5369V210.086C0.000857313 210.859 0.307773 211.599 0.853417 212.146C1.39906 212.692 2.13887 212.999 2.91053 213H234.089C234.861 212.999 235.601 212.692 236.147 212.146C236.692 211.599 236.999 210.859 237 210.086V83.5369C236.999 82.7643 236.692 82.0236 236.147 81.4773C235.601 80.9311 234.861 80.6238 234.089 80.6229ZM236.168 210.086C236.168 210.638 235.949 211.167 235.559 211.558C235.169 211.948 234.641 212.167 234.089 212.167H2.91053C2.35922 212.167 1.83056 211.948 1.44073 211.558C1.0509 211.167 0.831799 210.638 0.831579 210.086V83.5369C0.832333 82.9986 1.04087 82.4815 1.41359 82.0936C1.78631 81.7057 2.29437 81.4771 2.83155 81.4555L51.9737 101.87L119.032 129.727C119.758 130.023 120.572 130.019 121.294 129.715L186.274 101.932L234.173 81.4555C234.709 81.4787 235.216 81.7079 235.587 82.0956C235.959 82.4833 236.167 82.9995 236.168 83.5369V210.086Z" fill="#3F3D56"/>
<path d="M119.475 104.547C116.995 104.552 114.58 103.749 112.596 102.26L112.472 102.167L86.5642 82.3074C85.3644 81.387 84.3573 80.2389 83.6006 78.9289C82.8439 77.6188 82.3523 76.1723 82.154 74.6721C81.9556 73.1718 82.0544 71.6471 82.4446 70.185C82.8347 68.723 83.5087 67.3522 84.4281 66.1509C85.3474 64.9496 86.4941 63.9414 87.8026 63.1838C89.1111 62.4262 90.5559 61.934 92.0544 61.7354C93.5529 61.5368 95.0758 61.6357 96.5361 62.0263C97.9965 62.417 99.3657 63.0918 100.566 64.0122L117.347 76.8951L157.004 25.1154C157.924 23.9145 159.071 22.9066 160.38 22.1495C161.688 21.3923 163.133 20.9007 164.632 20.7026C166.131 20.5046 167.653 20.604 169.114 20.9952C170.574 21.3864 171.943 22.0617 173.142 22.9826L172.896 23.3178L173.149 22.9875C175.568 24.8493 177.151 27.5961 177.551 30.6251C177.95 33.6541 177.133 36.7181 175.279 39.1448L128.633 100.05C127.554 101.454 126.167 102.589 124.578 103.369C122.99 104.149 121.244 104.552 119.475 104.547Z" fill="#F0B000"/>
</g>
<defs>
<clipPath id="clip0_15_236">
<rect width="237" height="213" fill="white"/>
</clipPath>
</defs>
</svg>
