<svg width="328" height="282" viewBox="0 0 328 282" fill="none" xmlns="http://www.w3.org/2000/svg">
<g clip-path="url(#clip0_4_730)">
<path d="M136.438 244.989L140.02 233.342C135.71 228.606 130.307 224.992 124.28 222.814C130.168 232.552 124.462 245.257 126.84 256.382C127.608 259.846 129.147 263.093 131.344 265.882C133.54 268.672 136.337 270.932 139.527 272.496L144.963 279.22C147.813 274.249 149.55 268.721 150.053 263.015C150.557 257.31 149.816 251.563 147.88 246.172C146.765 243.158 145.273 240.296 143.441 237.654C140.211 241.445 136.438 244.989 136.438 244.989Z" fill="#F2F2F2"/>
<path d="M116.74 246.477L114.743 234.457C108.769 232.138 102.319 231.309 95.9511 232.042C105.572 238.137 106.141 252.049 113.239 260.947C115.474 263.706 118.302 265.927 121.514 267.446C124.726 268.964 128.239 269.742 131.793 269.722L139.662 273.32C139.993 267.602 139.077 261.88 136.979 256.55C134.881 251.219 131.65 246.406 127.509 242.441C125.164 240.24 122.551 238.343 119.731 236.794C118.533 241.626 116.74 246.477 116.74 246.477Z" fill="#F2F2F2"/>
<path d="M233.989 276.231L228.471 276.231L225.846 254.983L233.99 254.983L233.989 276.231Z" fill="#FFB6B6"/>
<path d="M235.396 281.571L217.604 281.57V281.346C217.604 279.512 218.333 277.754 219.632 276.457C220.931 275.161 222.692 274.432 224.529 274.432H224.53L227.78 271.971L233.843 274.432L235.397 274.432L235.396 281.571Z" fill="#2F2E41"/>
<path d="M323.128 256.138L319.365 260.167L302.005 247.597L307.558 241.65L323.128 256.138Z" fill="#FFB6B6"/>
<path d="M328 258.751L315.868 271.744L315.704 271.591C314.36 270.341 313.569 268.609 313.505 266.777C313.44 264.944 314.107 263.161 315.359 261.82L315.772 257.768L321.71 255.018L322.769 253.884L328 258.751Z" fill="#2F2E41"/>
<path d="M314.963 244.196L309.13 256.374L273.314 232.701L268.104 225.614L251.02 202.376L244.075 213.376L239.243 224.876C237.668 225.901 236.341 227.263 235.358 228.863C234.374 230.463 233.759 232.261 233.557 234.127L233.336 236.163L236.389 263.566L224.783 267.124L218.118 230.311L220.297 222.334L222.54 211.137L233.834 175.753H264.057L281.392 212.589L282.659 220.095L287.575 225.726L314.963 244.196Z" fill="#2F2E41"/>
<path d="M252.153 117.862L257.241 121.73L263.376 123.612C263.376 123.612 265.913 159.232 268.199 161.514C270.484 163.796 268.423 163.857 268.882 166.821C269.341 169.785 270.458 175.861 270.458 175.861C255.03 184.014 241.729 184.233 231.046 174.693C230.909 174.103 230.978 173.484 231.243 172.938C231.507 172.393 231.949 171.954 232.498 171.694C234.486 170.641 230.665 165.725 232.29 164.903C233.915 164.081 231.629 156.951 231.629 156.951L233.128 142.074L231.944 139.696L234.835 125.144L239.851 123.315L241.854 118.496L252.153 117.862Z" fill="#3F3D56"/>
<path d="M255.34 181.171C255.317 180.528 255.436 179.888 255.688 179.295C255.94 178.703 256.319 178.173 256.798 177.742C257.278 177.312 257.846 176.991 258.463 176.804C259.079 176.616 259.73 176.566 260.368 176.657L267.538 162.743L271.533 169.829L264.112 181.955C263.888 183.015 263.283 183.957 262.41 184.602C261.538 185.247 260.459 185.549 259.377 185.453C258.296 185.356 257.288 184.867 256.544 184.078C255.8 183.289 255.371 182.255 255.34 181.171Z" fill="#FFB6B6"/>
<path d="M267.415 177.768L282.794 153.972L282.744 153.863C282.686 153.738 279.203 146.229 275.829 139.351C275.309 138.292 274.792 137.248 274.29 136.248C274.074 135.817 273.86 135.394 273.65 134.981C272.233 132.191 270.995 129.886 270.256 128.791C268.621 126.314 266.187 124.471 263.357 123.566L263.286 123.548L263.218 123.576C261.835 124.159 260.691 125.196 259.976 126.515C259.262 127.833 259.018 129.356 259.287 130.831C260.621 137.947 263.593 144.656 267.97 150.429L270.463 153.709L261.799 172.514L267.415 177.768Z" fill="#3F3D56"/>
<path d="M214.531 86.5563C214.955 87.0417 215.266 87.6139 215.444 88.2326C215.622 88.8512 215.662 89.5013 215.561 90.1371C215.46 90.7728 215.221 91.3788 214.86 91.9122C214.499 92.4457 214.026 92.8936 213.473 93.2246L216.679 108.54L209.106 105.547L207.223 91.462C206.727 90.4976 206.603 89.3854 206.875 88.3361C207.146 87.2867 207.793 86.3731 208.694 85.7684C209.595 85.1637 210.687 84.91 211.763 85.0552C212.838 85.2004 213.823 85.7345 214.531 86.5563Z" fill="#FFB6B6"/>
<path d="M207.297 96.7912L210.36 124.944L210.468 124.997C210.558 125.041 214.437 126.941 219.2 129.203C220.003 129.585 219.888 131.238 220.727 131.633C221.306 131.906 222.833 130.918 223.418 131.191C228.623 133.621 233.887 135.984 235.984 136.624C238.816 137.52 241.87 137.422 244.638 136.346L244.705 136.316L244.74 136.251C245.447 134.928 245.682 133.404 245.405 131.93C245.129 130.457 244.357 129.121 243.218 128.144C237.693 123.454 231.152 120.111 224.111 118.378L220.105 117.397L214.974 97.3416L207.297 96.7912Z" fill="#3F3D56"/>
<path d="M246.728 116.267C252.286 116.267 256.792 111.769 256.792 106.221C256.792 100.672 252.286 96.1739 246.728 96.1739C241.17 96.1739 236.665 100.672 236.665 106.221C236.665 111.769 241.17 116.267 246.728 116.267Z" fill="#FFB6B6"/>
<path d="M236.737 99.4885C237.564 97.0848 241.684 95.4176 248.363 95.1858C255.042 94.954 256.736 102.812 256.736 102.812C261.195 106.422 251.975 116.089 251.529 115.741L251.73 113.925C252.062 110.917 253.473 108.569 251.678 105.434L249.955 105.454C247.729 105.881 245.504 106.308 243.278 106.735L245.913 104.419L245.839 104.305C244.718 104.887 243.498 105.257 242.242 105.395C240.826 105.478 239.278 104.915 238.599 103.672C238.418 103.33 238.308 102.955 238.274 102.57C236.364 103.331 235.491 105.682 235.491 105.682C235.491 105.682 235.909 101.892 236.737 99.4885Z" fill="#2F2E41"/>
<path d="M40.5463 100.091C40.4098 99.9183 40.2628 99.754 40.106 99.5991C40.1443 99.5465 40.1826 99.4892 40.2209 99.4367L40.5463 100.091Z" fill="#2F2E41"/>
<path d="M42.5036 140.498C40.8573 143.417 37.5697 145.046 34.3108 145.844C30.6503 146.801 26.7957 146.727 23.175 145.629C22.7156 145.481 22.2562 145.309 21.8112 145.118C22.0251 144.551 22.1947 143.968 22.3184 143.374C22.485 142.571 22.5684 141.753 22.5673 140.933C22.2047 141.639 21.7349 142.285 21.1747 142.849C20.7425 143.302 20.2517 143.696 19.7151 144.019C18.0509 143.011 16.6099 141.675 15.48 140.092C15.5517 139.915 15.6236 139.739 15.6905 139.562C16.038 138.639 16.3132 137.69 16.5136 136.724C16.7855 135.418 16.9218 134.088 16.9204 132.754C16.3304 133.903 15.5651 134.954 14.6521 135.869C14.3783 136.161 14.0875 136.437 13.7811 136.695C13.3067 135.257 13.1233 133.739 13.2416 132.229C13.3599 130.719 13.7775 129.248 14.4702 127.9C16.3653 124.403 20.0405 122.325 23.3138 120.065C26.5918 117.806 29.8699 114.748 30.1475 110.778C30.3341 108.098 29.0899 105.413 29.5876 102.776C29.7969 101.664 30.3079 100.631 31.0649 99.7885C31.8219 98.9463 32.7959 98.3277 33.8808 98C34.9656 97.6724 36.1198 97.6482 37.2175 97.9301C38.3152 98.2121 39.3143 98.7894 40.106 99.5991C38.2493 102.227 36.4021 104.945 35.6508 108.069C34.8851 111.251 35.512 114.982 38.0244 117.089C38.8857 117.815 39.9433 118.331 40.6085 119.239C41.4938 120.443 41.4986 122.048 41.6422 123.529C41.9293 126.41 42.8721 129.181 43.3793 132.033C43.8914 134.88 43.9201 137.971 42.5036 140.498Z" fill="#2F2E41"/>
<path d="M8.75726 258.97L13.1249 262.338L28.2194 247.124L21.7731 242.152L8.75726 258.97Z" fill="#A0616A"/>
<path d="M8.94306 255.678L16.1655 260.592L13.8799 263.545L16.9409 273.134C17.0921 273.608 17.0878 274.117 16.9285 274.588C16.7692 275.059 16.4632 275.467 16.0553 275.752C15.6474 276.037 15.159 276.184 14.6612 276.173C14.1634 276.161 13.6824 275.991 13.2885 275.687L5.06899 269.346L5.91306 265.332L3.09907 267.827L0 265.436L8.94306 255.678Z" fill="#2F2E41"/>
<path d="M30.9156 108.579C30.915 110.282 31.3332 111.96 32.1337 113.465C32.9341 114.969 34.0923 116.254 35.5065 117.208C36.9207 118.161 38.5477 118.753 40.2447 118.932C41.9417 119.111 43.6568 118.872 45.2394 118.235C46.822 117.598 48.2237 116.582 49.3216 115.278C50.4194 113.974 51.1798 112.421 51.5359 110.755C51.8921 109.089 51.8331 107.361 51.3642 105.723C50.8952 104.085 50.0307 102.587 48.8465 101.36L48.7965 101.31C48.7131 101.223 48.6296 101.136 48.5421 101.052L48.5405 101.052L48.5391 101.051L48.5382 101.05L48.5379 101.048C48.4295 100.948 48.3211 100.848 48.2085 100.753C46.3737 99.1456 43.7949 97.4015 41.1636 97.4015C35.4049 97.4015 30.9156 102.83 30.9156 108.579Z" fill="#2F2E41"/>
<path d="M90.3362 103.234C90.3861 103.789 90.3135 104.349 90.1235 104.873C89.9335 105.397 89.6307 105.873 89.2364 106.267C88.8422 106.662 88.366 106.965 87.8416 107.156C87.3171 107.347 86.7571 107.421 86.201 107.373L60.3862 130.641L55.9438 123.637L82.7158 102.967C82.8592 102.04 83.3384 101.197 84.0625 100.599C84.7867 100.001 85.7055 99.6888 86.6448 99.7217C87.5841 99.7546 88.4787 100.13 89.1591 100.778C89.8394 101.425 90.2583 102.299 90.3362 103.234Z" fill="#A0616A"/>
<path d="M49.3533 137.665C49.3533 137.665 50.3138 139.436 53.5947 136.701C56.2214 134.512 68.8054 125.008 71.5164 121.113C72.1354 121.358 72.8185 121.39 73.4579 121.205C74.0974 121.02 74.6569 120.627 75.0483 120.089L67.6203 113.595C65.3978 113.851 65.4454 115.341 65.6769 116.187L60.0738 118.722L45.6049 127.953L48.6363 136.397L49.3533 137.665Z" fill="#F3C033"/>
<path d="M35.3364 153.981L34.7953 156.553L34.3359 166.041L54.563 167.151L53.9348 152.558L51.9742 149.342L35.3364 153.981Z" fill="#A0616A"/>
<path d="M43.9089 119.714C48.7369 119.714 52.6507 115.807 52.6507 110.987C52.6507 106.167 48.7369 102.26 43.9089 102.26C39.081 102.26 35.1672 106.167 35.1672 110.987C35.1672 115.807 39.081 119.714 43.9089 119.714Z" fill="#A0616A"/>
<path d="M28.389 143.176L28.3352 135.922C28.334 133.311 29.2188 130.778 30.8452 128.734C32.4717 126.691 34.7439 125.257 37.2911 124.669L37.3241 124.661L39.0527 122.336L46.0756 123.037L47.3628 125.663L52.4517 128.688L54.411 134.976C55.2608 135.542 55.9851 136.276 56.5388 137.132C57.0925 137.989 57.4638 138.95 57.6297 139.956C58.2949 144.198 55.3199 148.442 54.966 148.929L54.0542 154.055L34.2192 157.549L34.0581 157.57L28.389 143.176Z" fill="#F3C033"/>
<path d="M54.6061 109.431C53.5864 110.076 52.5284 110.658 51.438 111.175C50.3313 111.705 49.1738 112.123 47.9829 112.422C47.6422 111.675 47.2253 110.966 46.7387 110.305C46.8639 111.088 46.8671 111.886 46.7483 112.67C44.7745 112.988 42.7529 112.822 40.8574 112.187L39.2112 109.431L39.0867 112.508C37.7229 112.756 36.3638 112.99 34.9999 113.234C34.9186 113.243 34.8373 113.262 34.7607 113.277C33.9136 109.464 35.1148 105.265 37.7851 102.724C39.1109 101.475 40.7647 100.628 42.554 100.281C44.3434 99.9343 46.1945 100.102 47.892 100.765C48.1074 100.851 48.3275 100.946 48.5381 101.047L48.5384 101.049L48.5394 101.05L48.541 101.051L48.5428 101.051C48.6673 101.114 48.7726 101.262 48.9113 101.247C54.8836 100.583 55.075 105.208 54.6061 109.431Z" fill="#2F2E41"/>
<path d="M40.0634 247.717L44.4378 251.077L59.5017 235.832L53.0456 230.873L40.0634 247.717Z" fill="#A0616A"/>
<path d="M40.6392 244.729L47.8715 249.629L45.5919 252.587L48.6723 262.169C48.8245 262.642 48.8212 263.152 48.6628 263.623C48.5045 264.094 48.1994 264.503 47.792 264.789C47.3847 265.074 46.8965 265.223 46.3987 265.212C45.901 265.201 45.4196 265.032 45.025 264.729L36.7928 258.405L37.6287 254.39L34.8198 256.89L31.7159 254.505L40.6392 244.729Z" fill="#2F2E41"/>
<path d="M25.8688 229.111L25.8686 229.054L27.9417 225.487L25.8248 220.845L25.7613 208.917L26.1044 207.126C26.566 204.718 26.4317 202.234 25.7132 199.889L25.6745 192.629C25.6002 190.81 28.4225 189.21 27.7644 187.694C21.5432 173.362 34.1171 162.428 34.202 162.341L34.459 162.074L35.8531 163.128L37.1801 163.13L55.0866 166.387L55.2159 166.628C55.9202 167.946 57.2794 172.492 57.3601 174.549C58.2525 175.581 68.418 187.324 69.3217 188.14C75.4282 193.656 78.9244 202.785 80.465 207.736C80.8475 208.96 80.9247 210.258 80.6896 211.519C80.4545 212.779 79.9144 213.962 79.1162 214.967L55.9986 240.245L49.7775 234.512L62.2862 211.757L61.3842 209.448C59.7658 209.15 58.3011 208.301 57.2401 207.045L54.7072 204.043C54.0059 203.215 53.5603 202.201 53.4242 201.124L51.8882 200.94L46.386 195.173L42.5686 229.684L41.5308 232.41L23.4574 253.622L15.8006 248.844L25.8688 229.111Z" fill="#2F2E41"/>
<path d="M23.1086 80.9238C22.7614 81.3602 22.5142 81.8673 22.3846 82.4094C22.2549 82.9515 22.2458 83.5153 22.358 84.0613C22.4703 84.6072 22.701 85.1219 23.034 85.5692C23.3671 86.0165 23.7943 86.3854 24.2856 86.6501L18.5387 103.635L23.2314 121.635L30.7984 118.22L26.129 104.643L29.6225 84.8811C30.013 84.0276 30.0765 83.0608 29.8007 82.1638C29.5249 81.2668 28.9291 80.5019 28.1262 80.0141C27.3233 79.5264 26.3691 79.3495 25.4443 79.5172C24.5195 79.6849 23.6885 80.1854 23.1086 80.9238Z" fill="#A0616A"/>
<path d="M30.0351 136.465C30.0351 136.465 28.2579 137.418 27.0218 133.334C26.0323 130.064 19.298 112.309 19.1767 107.568C18.5247 107.433 17.9363 107.086 17.504 106.58C17.0718 106.074 16.8204 105.439 16.7893 104.775L26.5701 103.424C28.2863 104.857 27.4262 106.076 26.767 106.656L30.0982 112.289L37.061 127.497L31.3321 135.8L30.0351 136.465Z" fill="#F3C033"/>
<path d="M34.998 113.233C36.0024 110.209 37.8034 107.511 40.2122 105.421C42.6209 103.331 45.5486 101.927 48.688 101.356C48.7005 101.352 48.7423 101.335 48.7965 101.31C48.8298 101.29 48.8715 101.269 48.9132 101.248C48.7881 101.177 48.6672 101.115 48.5421 101.052L48.5405 101.052L48.5391 101.051L48.5382 101.05L48.5379 101.048C48.4295 100.948 48.3211 100.848 48.2085 100.753L47.8916 100.765C47.8916 100.765 36.7536 99.0041 34.998 113.233Z" fill="#FD6584"/>
<path d="M178.719 210.482C179.934 208.658 179.215 206.046 177.112 204.65C175.008 203.253 172.318 203.599 171.102 205.423C169.887 207.247 170.606 209.858 172.709 211.255C174.813 212.652 177.503 212.306 178.719 210.482Z" fill="#F2F2F2"/>
<path d="M154.043 142.402C155.258 140.578 154.539 137.967 152.436 136.57C150.333 135.173 147.642 135.519 146.427 137.343C145.211 139.167 145.93 141.778 148.034 143.175C150.137 144.572 152.827 144.226 154.043 142.402Z" fill="#F2F2F2"/>
<path d="M257.233 247.209C258.449 245.385 257.729 242.774 255.626 241.377C253.523 239.98 250.832 240.326 249.617 242.15C248.401 243.974 249.121 246.585 251.224 247.982C253.327 249.379 256.017 249.033 257.233 247.209Z" fill="#F2F2F2"/>
<path d="M48.6092 28.1889C49.8248 26.3649 49.1053 23.7538 47.0022 22.3569C44.899 20.9601 42.2086 21.3064 40.993 23.1304C39.7775 24.9544 40.497 27.5655 42.6001 28.9624C44.7032 30.3592 47.3936 30.0129 48.6092 28.1889Z" fill="#F2F2F2"/>
<path d="M145.967 6.69C147.183 4.86597 146.463 2.25493 144.36 0.858066C142.257 -0.538797 139.566 -0.192515 138.351 1.63152C137.135 3.45555 137.855 6.06662 139.958 7.46348C142.061 8.86034 144.751 8.51404 145.967 6.69Z" fill="#F2F2F2"/>
<path d="M99.8901 187.063C101.106 185.239 100.386 182.628 98.2831 181.231C96.1799 179.834 93.4896 180.181 92.274 182.005C91.0584 183.829 91.7779 186.44 93.881 187.837C95.9842 189.234 98.6745 188.887 99.8901 187.063Z" fill="#E6E6E6"/>
<path d="M300.717 282H8.96103C8.81962 282 8.68414 281.943 8.58429 281.843C8.48444 281.743 8.42838 281.608 8.42838 281.467C8.42838 281.326 8.48444 281.19 8.58429 281.09C8.68414 280.99 8.81962 280.934 8.96103 280.933H300.717C300.859 280.933 300.995 280.99 301.095 281.09C301.195 281.19 301.252 281.325 301.252 281.467C301.252 281.608 301.195 281.744 301.095 281.844C300.995 281.944 300.859 282 300.717 282Z" fill="#CCCCCC"/>
<path d="M63.2639 104.88C60.8097 104.872 58.4442 103.963 56.6196 102.324C54.795 100.686 53.6393 98.4332 53.3734 95.9976L47.6776 43.1879C47.3978 40.5659 48.1712 37.9401 49.8282 35.8867C51.4853 33.8332 53.8906 32.5198 56.5164 32.2347L225.638 14.0556C228.265 13.7761 230.895 14.5481 232.952 16.2023C235.009 17.8565 236.325 20.2578 236.61 22.8792L242.306 75.6886C242.586 78.3107 241.813 80.9366 240.156 82.9901C238.498 85.0436 236.093 86.3571 233.467 86.6423L64.3455 104.821C63.9863 104.86 63.6252 104.88 63.2639 104.88Z" fill="#E6E6E6"/>
<path d="M223.775 16.5072C223.458 16.5073 223.14 16.5244 222.824 16.5584L59.8 34.082C58.6601 34.2045 57.5556 34.55 56.5494 35.0987C55.5432 35.6474 54.6552 36.3886 53.9359 37.2799C53.2167 38.1712 52.6803 39.1952 52.3575 40.2935C52.0346 41.3917 51.9317 42.5427 52.0544 43.6807L54.9343 70.3817C55.3998 74.6983 56.7124 78.881 58.7972 82.6912C60.882 86.5013 63.698 89.8642 67.0847 92.5878C70.4713 95.3115 74.3622 97.3425 78.5351 98.565C82.708 99.7875 87.0812 100.177 91.4051 99.7126L206.038 87.3905C210.349 86.9272 214.526 85.6208 218.331 83.5458C222.136 81.4709 225.494 78.6681 228.214 75.2975C230.934 71.9269 232.962 68.0544 234.183 63.9013C235.404 59.7481 235.794 55.3955 235.329 51.0921L232.439 24.2909C232.208 22.1561 231.197 20.1813 229.598 18.7449C228 17.3086 225.926 16.5118 223.775 16.5072Z" fill="white"/>
<path d="M189.445 44.2954L98.3286 54.0896C98.068 54.1179 97.8045 54.0948 97.5529 54.0213C97.3014 53.9479 97.0668 53.8257 96.8626 53.6617C96.6584 53.4977 96.4886 53.2952 96.3629 53.0656C96.2372 52.836 96.158 52.584 96.13 52.3238C96.1019 52.0637 96.1255 51.8006 96.1994 51.5496C96.2732 51.2986 96.396 51.0646 96.5605 50.8609C96.7251 50.6573 96.9282 50.4881 97.1583 50.3629C97.3884 50.2377 97.641 50.159 97.9016 50.1313L189.018 40.3371C189.278 40.3087 189.542 40.3319 189.794 40.4054C190.045 40.4788 190.28 40.601 190.484 40.765C190.688 40.929 190.858 41.1315 190.984 41.3611C191.109 41.5907 191.188 41.8427 191.217 42.1029C191.245 42.363 191.221 42.6261 191.147 42.8771C191.073 43.1281 190.951 43.3621 190.786 43.5658C190.621 43.7694 190.418 43.9387 190.188 44.0638C189.958 44.189 189.705 44.2677 189.445 44.2954Z" fill="#F3C033"/>
<path d="M190.755 56.4435L99.6388 66.2378C99.113 66.2943 98.5863 66.14 98.1745 65.8088C97.7626 65.4776 97.4995 64.9966 97.4429 64.4717C97.3862 63.9468 97.5408 63.421 97.8726 63.0099C98.2043 62.5987 98.6861 62.336 99.2119 62.2795L190.328 52.4853C190.854 52.4287 191.381 52.5831 191.793 52.9143C192.204 53.2454 192.468 53.7264 192.524 54.2513C192.581 54.7762 192.426 55.302 192.094 55.7132C191.763 56.1243 191.281 56.387 190.755 56.4435Z" fill="#F3C033"/>
<path d="M111.567 77.2442L100.949 78.3856C100.423 78.4421 99.8965 78.2878 99.4847 77.9566C99.0729 77.6254 98.8097 77.1445 98.7531 76.6196C98.6965 76.0947 98.8511 75.5688 99.1828 75.1577C99.5146 74.7466 99.9963 74.4839 100.522 74.4273L111.14 73.286C111.401 73.2576 111.665 73.2808 111.916 73.3542C112.168 73.4276 112.402 73.5498 112.606 73.7138C112.811 73.8778 112.98 74.0804 113.106 74.31C113.232 74.5395 113.311 74.7916 113.339 75.0517C113.367 75.3118 113.343 75.5749 113.27 75.826C113.196 76.077 113.073 76.311 112.908 76.5146C112.744 76.7183 112.541 76.8875 112.311 77.0127C112.081 77.1379 111.828 77.2166 111.567 77.2442Z" fill="#F3C033"/>
<path d="M59.6789 45.4163C61.6612 45.4163 63.2681 43.812 63.2681 41.8331C63.2681 39.8542 61.6612 38.25 59.6789 38.25C57.6966 38.25 56.0897 39.8542 56.0897 41.8331C56.0897 43.812 57.6966 45.4163 59.6789 45.4163Z" fill="#3F3D56"/>
<path d="M220.297 27.5005C222.279 27.5005 223.886 25.8963 223.886 23.9174C223.886 21.9385 222.279 20.3342 220.297 20.3342C218.314 20.3342 216.708 21.9385 216.708 23.9174C216.708 25.8963 218.314 27.5005 220.297 27.5005Z" fill="#3F3D56"/>
<path d="M171.772 101.061C171.442 100.772 171.181 100.413 171.007 100.011C170.834 99.608 170.752 99.1719 170.769 98.734C170.949 93.5295 170.09 88.3413 168.243 83.4713C168.086 83.0619 168.023 82.6228 168.057 82.1859C168.092 81.749 168.224 81.3254 168.443 80.9457C168.653 80.5808 168.941 80.2662 169.285 80.024C169.63 79.7818 170.024 79.6179 170.439 79.5438C174.611 77.0306 178.887 76.325 183.153 77.4471C183.841 77.3461 184.542 77.4931 185.131 77.8617C185.72 78.2304 186.158 78.7966 186.367 79.4587C188.094 85.0555 189.054 90.8599 189.222 96.7138C189.238 97.4161 189 98.1006 188.551 98.6416C188.102 99.1826 187.473 99.5438 186.779 99.6588L174.157 101.741C173.734 101.811 173.3 101.787 172.888 101.669C172.475 101.552 172.094 101.344 171.772 101.061Z" fill="#F3C033"/>
<path d="M172.893 85.8974L183.517 84.1452C183.604 84.131 183.688 84.0997 183.763 84.0532C183.838 84.0067 183.903 83.9458 183.955 83.874C184.007 83.8022 184.044 83.721 184.064 83.6349C184.084 83.5489 184.087 83.4597 184.072 83.3726C184.058 83.2854 184.026 83.2019 183.98 83.1269C183.933 83.0519 183.872 82.9869 183.8 82.9355C183.728 82.8841 183.646 82.8474 183.56 82.8275C183.474 82.8076 183.384 82.8049 183.297 82.8195L172.674 84.5716C172.498 84.6011 172.341 84.6989 172.237 84.8436C172.134 84.9883 172.092 85.1682 172.121 85.3437C172.15 85.5193 172.247 85.6762 172.392 85.7799C172.537 85.8837 172.717 85.9259 172.893 85.8974Z" fill="white"/>
<path d="M173.77 91.2002L184.394 89.448C184.57 89.419 184.728 89.3213 184.832 89.1765C184.935 89.0316 184.977 88.8515 184.948 88.6757C184.919 88.4999 184.821 88.3428 184.676 88.239C184.531 88.1353 184.351 88.0933 184.175 88.1223L173.551 89.8745C173.464 89.8887 173.38 89.92 173.305 89.9665C173.23 90.013 173.164 90.0739 173.113 90.1457C173.061 90.2175 173.024 90.2987 173.004 90.3847C172.984 90.4708 172.981 90.5599 172.995 90.6471C173.01 90.7343 173.041 90.8178 173.088 90.8928C173.135 90.9678 173.196 91.0328 173.268 91.0842C173.34 91.1356 173.421 91.1723 173.508 91.1922C173.594 91.2121 173.683 91.2148 173.77 91.2002Z" fill="white"/>
<path d="M174.648 96.503L185.272 94.7509C185.448 94.7219 185.605 94.6242 185.709 94.4793C185.813 94.3345 185.855 94.1543 185.826 93.9785C185.797 93.8027 185.699 93.6457 185.554 93.5419C185.409 93.4381 185.228 93.3961 185.052 93.4252L174.429 95.1773C174.341 95.1917 174.258 95.2231 174.183 95.2697C174.108 95.3163 174.043 95.3772 173.991 95.4489C173.94 95.5206 173.903 95.6018 173.883 95.6877C173.863 95.7736 173.86 95.8627 173.874 95.9497C173.889 96.0367 173.92 96.1201 173.967 96.195C174.014 96.27 174.075 96.335 174.146 96.3863C174.218 96.4377 174.3 96.4745 174.386 96.4945C174.472 96.5145 174.561 96.5174 174.648 96.503Z" fill="white"/>
</g>
<defs>
<clipPath id="clip0_4_730">
<rect width="328" height="282" fill="white"/>
</clipPath>
</defs>
</svg>
